<?xml version="1.0" standalone="no"?>
<!DOCTYPE svg PUBLIC "-//W3C//DTD SVG 20010904//EN"
 "http://www.w3.org/TR/2001/REC-SVG-20010904/DTD/svg10.dtd">
<svg version="1.0" xmlns="http://www.w3.org/2000/svg"
 width="2048.000000pt" height="2048.000000pt" viewBox="0 0 2048.000000 2048.000000"
 preserveAspectRatio="xMidYMid meet">
<metadata>
Created by potrace 1.11, written by Peter Selinger 2001-2013
</metadata>
<g transform="translate(0.000000,2048.000000) scale(0.100000,-0.100000)"
fill="#000000" stroke="none">
<path d="M10080 16136 c0 -18 -5 -18 -105 -17 -41 0 -72 -4 -76 -11 -4 -6 -24
-11 -45 -10 -21 1 -43 -3 -50 -8 -6 -6 -28 -11 -48 -12 -20 -1 -36 -5 -36 -10
0 -4 -15 -8 -34 -8 -19 0 -38 -4 -41 -10 -3 -5 -19 -10 -36 -10 -16 0 -29 -4
-29 -10 0 -5 -9 -10 -19 -10 -10 0 -21 -6 -24 -14 -4 -9 -14 -12 -27 -9 -12 3
-25 2 -29 -3 -9 -14 -49 -34 -66 -34 -8 0 -15 -7 -15 -15 0 -8 -6 -12 -15 -9
-8 3 -28 -4 -44 -15 -16 -12 -36 -21 -45 -21 -9 0 -16 -7 -16 -15 0 -9 -6 -12
-15 -9 -9 4 -23 -3 -34 -15 -10 -11 -24 -21 -30 -21 -15 0 -41 -25 -41 -39 0
-6 -7 -8 -15 -5 -9 4 -23 -3 -34 -15 -10 -11 -23 -21 -28 -21 -6 0 -30 -19
-54 -42 -24 -24 -47 -42 -51 -41 -10 4 -298 -285 -298 -299 0 -6 -3 -8 -7 -5
-9 10 -33 -13 -33 -32 0 -9 -9 -22 -20 -29 -11 -7 -20 -20 -20 -29 0 -9 -3
-14 -6 -10 -8 8 -34 -18 -34 -35 0 -7 -14 -24 -30 -37 -17 -13 -30 -31 -30
-40 0 -9 -9 -23 -20 -31 -11 -8 -20 -22 -20 -32 0 -10 -4 -18 -10 -18 -5 0
-10 -8 -10 -18 0 -10 -9 -24 -20 -32 -11 -8 -20 -21 -20 -30 0 -9 -9 -22 -20
-30 -11 -8 -20 -22 -20 -32 0 -10 -4 -18 -10 -18 -5 0 -10 -9 -10 -20 0 -11
-4 -20 -10 -20 -5 0 -10 -9 -10 -20 0 -11 -4 -20 -10 -20 -5 0 -10 -9 -10 -19
0 -11 -6 -21 -12 -23 -15 -5 13 -38 31 -38 17 0 61 42 61 58 0 17 25 43 34 35
3 -4 6 1 6 9 0 9 7 19 16 22 8 3 13 10 9 16 -7 11 81 101 90 92 3 -3 5 7 5 22
0 16 5 26 13 25 23 -3 38 1 34 9 -5 9 100 111 108 104 3 -3 5 0 5 7 0 15 20
35 40 39 8 2 28 17 44 33 15 16 35 29 42 29 8 0 14 5 14 11 0 5 4 7 10 4 5 -3
21 5 35 19 14 15 31 26 37 26 6 0 18 8 27 18 9 9 23 18 31 20 8 2 17 8 18 13
2 5 12 9 23 9 10 0 19 5 19 11 0 6 7 8 15 5 9 -3 18 1 21 9 4 8 15 15 25 15
10 0 19 4 19 10 0 5 16 8 35 6 20 -1 40 3 46 11 7 7 18 13 25 13 8 0 14 4 14
8 0 4 12 9 27 10 15 1 30 7 34 13 4 7 19 9 33 7 17 -4 26 -1 26 8 0 9 16 12
56 10 32 -1 59 4 65 10 13 16 436 16 442 0 3 -6 25 -11 51 -10 25 1 46 -3 46
-7 0 -5 11 -9 24 -9 14 0 28 -4 31 -10 3 -5 17 -10 29 -10 13 0 29 -7 36 -15
7 -8 16 -12 21 -9 5 3 16 -2 24 -10 9 -8 22 -13 30 -10 8 4 17 -1 21 -9 3 -9
12 -13 20 -10 7 3 21 -2 30 -11 8 -9 20 -14 25 -11 5 4 9 1 9 -4 0 -6 7 -11
15 -11 9 0 18 -6 21 -14 3 -8 11 -13 18 -10 14 5 206 -180 206 -198 0 -6 3 -9
6 -5 9 8 56 -41 50 -52 -3 -5 6 -17 19 -27 14 -10 25 -27 25 -36 0 -10 5 -18
10 -18 6 0 10 -12 10 -27 0 -14 3 -24 6 -20 10 9 34 -19 34 -40 0 -23 22 -73
33 -73 4 0 7 -16 7 -36 0 -21 4 -33 10 -29 6 4 10 -7 10 -24 0 -17 5 -31 10
-31 6 0 10 -25 10 -56 0 -34 4 -53 10 -49 6 4 10 -13 10 -44 0 -28 5 -51 10
-51 14 0 14 -397 -1 -402 -6 -2 -10 -29 -10 -61 0 -31 -5 -57 -10 -57 -5 0 -9
-13 -9 -30 0 -16 -4 -30 -10 -30 -5 0 -10 -18 -10 -40 0 -22 -4 -40 -10 -40
-5 0 -10 -9 -10 -20 0 -11 -6 -20 -14 -20 -9 0 -12 -8 -8 -25 2 -15 0 -25 -7
-25 -6 0 -11 -8 -11 -18 0 -22 -22 -72 -32 -72 -5 0 -8 -6 -8 -14 0 -18 -61
-136 -82 -160 -10 -11 -18 -25 -18 -32 0 -6 -7 -17 -15 -24 -8 -7 -13 -16 -10
-20 2 -4 -4 -15 -15 -25 -11 -10 -20 -23 -20 -30 0 -6 -13 -24 -30 -40 -16
-16 -30 -35 -30 -42 0 -7 -4 -13 -10 -13 -5 0 -10 -7 -10 -16 0 -8 -4 -12 -10
-9 -5 3 -10 -1 -10 -10 0 -9 -4 -14 -9 -11 -5 4 -15 -7 -23 -24 -7 -16 -16
-30 -20 -30 -5 0 -8 -8 -8 -17 0 -9 -3 -13 -6 -10 -4 4 -19 -9 -34 -28 -15
-19 -29 -32 -32 -30 -3 3 -15 -15 -28 -40 -12 -24 -27 -42 -31 -39 -5 3 -9 -3
-9 -12 0 -10 -2 -15 -5 -12 -7 7 -75 -61 -75 -75 0 -6 -3 -8 -6 -4 -3 3 -23
-14 -44 -38 -21 -24 -41 -41 -44 -38 -3 4 -6 -2 -6 -12 0 -10 -3 -16 -6 -13
-7 8 -54 -40 -54 -54 0 -6 -3 -9 -6 -5 -3 3 -23 -14 -44 -38 -21 -24 -41 -41
-44 -38 -3 4 -6 -1 -6 -10 0 -10 -6 -14 -14 -11 -7 3 -23 -7 -35 -22 -11 -15
-21 -23 -21 -19 0 4 -13 -9 -30 -30 -16 -21 -30 -34 -30 -29 0 5 -9 -4 -20
-21 -11 -16 -20 -25 -20 -20 0 6 -5 2 -11 -8 -6 -9 -14 -15 -20 -12 -5 4 -12
-1 -15 -9 -3 -9 -9 -14 -14 -11 -4 2 -13 -7 -20 -20 -7 -13 -17 -22 -22 -19
-4 3 -8 -2 -8 -11 0 -9 -4 -14 -8 -11 -5 3 -15 -5 -22 -18 -7 -13 -19 -23 -27
-22 -16 3 -63 -38 -63 -53 0 -10 -30 -25 -43 -22 -4 0 -10 -6 -13 -14 -3 -8
-10 -12 -15 -9 -5 3 -9 -3 -9 -12 0 -10 -3 -14 -7 -11 -3 4 -15 -5 -25 -20
-10 -16 -18 -23 -18 -18 0 6 -8 -1 -18 -15 -9 -14 -24 -25 -32 -25 -8 0 -26
-14 -40 -31 -14 -17 -30 -29 -36 -27 -7 2 -21 -8 -33 -23 -12 -15 -21 -24 -21
-21 0 3 -11 -4 -24 -16 -37 -33 -56 -48 -56 -43 0 3 -11 -6 -25 -20 -14 -14
-30 -22 -35 -19 -6 3 -10 -2 -10 -11 0 -10 -3 -14 -6 -11 -4 4 -18 -8 -33 -26
-14 -18 -33 -32 -41 -32 -8 0 -23 -10 -33 -22 -10 -13 -22 -21 -27 -18 -4 3
-22 -10 -38 -29 -17 -19 -33 -32 -36 -29 -3 4 -6 -1 -6 -11 0 -9 -4 -14 -10
-11 -5 3 -10 -1 -10 -9 0 -9 -7 -13 -20 -11 -13 2 -20 -2 -20 -11 0 -8 -4 -13
-9 -10 -5 3 -12 -1 -15 -10 -3 -8 -10 -12 -16 -9 -6 3 -13 -1 -16 -9 -3 -9
-10 -13 -15 -10 -5 3 -9 -2 -9 -11 0 -9 -4 -14 -9 -11 -5 3 -12 -1 -15 -9 -3
-8 -9 -14 -14 -13 -11 4 -82 -58 -82 -71 0 -5 -8 -8 -17 -7 -10 2 -29 -12 -44
-30 -14 -18 -29 -31 -32 -28 -8 8 -47 -19 -47 -32 0 -12 -28 -29 -42 -26 -4 1
-15 -9 -25 -21 -10 -12 -25 -22 -33 -22 -8 0 -23 -10 -33 -22 -10 -13 -22 -21
-27 -18 -4 3 -22 -10 -38 -29 -17 -19 -33 -32 -36 -28 -4 3 -23 -11 -44 -31
-21 -21 -41 -34 -45 -31 -4 4 -9 -1 -13 -10 -3 -9 -10 -13 -15 -10 -5 3 -9 -2
-9 -10 0 -10 -6 -13 -15 -10 -8 4 -17 -1 -21 -10 -3 -9 -10 -14 -14 -11 -4 3
-10 -1 -13 -9 -3 -8 -22 -22 -41 -31 -20 -10 -36 -24 -36 -32 0 -8 -4 -12 -9
-9 -5 3 -12 -1 -15 -10 -3 -8 -10 -13 -15 -9 -5 3 -22 -8 -38 -24 -15 -17 -35
-31 -43 -33 -8 -2 -25 -14 -37 -28 -12 -13 -25 -21 -29 -18 -3 4 -19 -8 -35
-25 -16 -18 -34 -32 -38 -32 -5 0 -21 -10 -35 -22 -14 -13 -26 -20 -26 -17 0
4 -7 1 -16 -7 -25 -21 -97 -18 -113 5 -21 28 -15 105 9 131 11 12 20 29 20 39
0 10 5 14 11 10 7 -4 9 2 7 17 -2 15 2 23 10 22 6 -2 12 3 12 11 0 8 3 16 8
18 10 4 52 87 52 103 0 8 9 17 20 20 11 4 20 12 19 18 -3 23 1 40 8 34 8 -9
32 24 33 46 0 9 5 17 10 17 6 0 10 9 10 21 0 11 5 17 10 14 6 -4 10 5 10 19 0
14 5 26 10 26 6 0 10 9 10 20 0 11 3 20 8 20 8 0 32 49 32 67 0 7 5 13 11 13
5 0 7 5 4 10 -3 6 1 13 9 16 9 3 16 14 16 24 0 11 5 22 10 25 6 3 10 15 10 26
0 10 4 19 9 19 8 0 18 24 27 65 3 11 9 24 14 29 10 10 14 76 5 76 -12 0 -55
-24 -55 -31 0 -13 -130 -144 -140 -142 -5 2 -6 -5 -3 -15 3 -9 3 -14 -1 -11
-9 8 -76 -56 -76 -72 0 -7 -3 -9 -7 -6 -3 4 -19 -9 -36 -28 -16 -19 -33 -33
-37 -30 -5 3 -18 -7 -29 -21 -12 -15 -21 -23 -21 -18 0 5 -5 1 -11 -8 -5 -10
-16 -15 -24 -12 -9 4 -15 0 -15 -9 0 -10 -7 -15 -18 -12 -11 2 -26 -7 -36 -20
-10 -13 -24 -21 -32 -18 -9 3 -14 -1 -14 -12 0 -9 -4 -14 -9 -11 -5 3 -21 0
-36 -8 -15 -8 -34 -12 -41 -9 -8 3 -14 -1 -14 -10 0 -10 -7 -15 -20 -12 -12 2
-20 -2 -20 -9 0 -9 -13 -12 -40 -11 -25 1 -41 -3 -44 -11 -3 -8 -12 -11 -21
-8 -9 4 -15 1 -15 -8 0 -11 -11 -14 -40 -13 -24 1 -40 -3 -40 -9 0 -7 -20 -11
-50 -10 -30 0 -51 -5 -54 -12 -3 -8 -26 -11 -70 -9 -45 2 -66 -1 -66 -8 0 -9
-280 -12 -1130 -12 -925 0 -1130 2 -1130 13 0 7 5 10 10 7 6 -3 10 2 10 11 0
10 3 15 6 12 5 -6 19 5 86 65 21 19 40 32 43 29 3 -3 14 3 25 13 11 10 20 14
20 9 0 -5 7 0 15 10 8 11 15 16 15 11 0 -5 6 0 14 11 8 10 17 16 21 13 3 -4
17 3 30 15 43 38 98 81 105 81 4 0 14 8 23 17 10 9 26 20 37 23 11 3 20 11 20
17 0 6 3 8 6 5 4 -3 16 5 27 19 10 14 25 23 32 20 7 -2 18 6 25 19 8 15 19 22
31 20 11 -2 19 1 19 6 0 6 7 17 15 25 8 9 15 13 15 9 0 -4 7 1 16 9 8 9 19 14
23 11 5 -2 14 6 21 20 7 13 18 21 26 18 8 -3 17 2 20 11 3 9 10 13 15 10 5 -3
9 2 9 11 0 9 4 14 9 10 5 -3 17 2 25 11 9 8 16 12 16 7 0 -4 8 4 18 18 9 14
22 24 28 22 7 -2 21 7 32 21 10 14 22 22 26 19 3 -3 6 1 6 10 0 10 6 14 14 11
7 -3 22 6 32 19 11 13 27 23 37 21 9 -1 17 4 17 12 0 9 5 12 10 9 6 -3 10 1
10 9 0 9 7 13 20 11 13 -2 20 2 20 11 0 8 4 13 9 10 5 -3 12 1 15 9 3 8 9 14
13 14 15 -4 43 13 43 26 0 7 14 18 30 25 17 7 41 25 53 40 13 14 28 25 34 23
6 -2 20 8 32 23 12 15 21 23 21 18 0 -4 6 0 13 11 8 10 19 15 25 11 7 -4 12
-3 12 3 0 17 47 58 64 55 9 -1 16 4 16 12 0 9 4 13 9 10 5 -3 12 1 15 10 3 8
10 13 15 9 6 -3 14 3 20 12 6 10 11 14 11 9 0 -5 9 3 21 18 11 14 24 24 29 21
4 -2 16 6 26 20 10 13 21 22 25 19 4 -2 10 3 13 12 3 8 10 12 16 9 6 -3 13 1
16 9 3 9 9 14 14 11 4 -2 13 7 20 20 7 13 17 22 22 19 4 -3 8 2 8 10 0 10 6
13 15 10 8 -4 17 1 21 10 3 9 9 14 14 11 4 -2 13 6 20 20 8 15 19 22 31 20 11
-2 19 0 19 5 0 13 48 59 54 52 3 -3 6 2 6 10 0 15 26 33 43 29 4 0 10 6 13 14
3 8 10 12 15 9 5 -3 9 0 9 6 0 15 26 41 34 33 3 -4 6 1 6 11 0 9 5 14 10 11 6
-3 10 -1 10 5 0 13 71 76 82 72 5 -1 11 5 14 13 3 8 10 12 15 9 5 -3 9 -1 9 5
0 14 47 60 54 53 3 -3 6 2 6 12 0 9 4 15 8 12 5 -3 15 6 22 19 7 13 17 22 22
19 4 -3 8 -1 8 3 0 5 16 26 35 46 19 20 35 34 35 30 0 -5 8 4 18 20 10 15 21
25 24 22 2 -3 15 15 28 40 12 24 27 42 31 39 5 -3 9 0 9 6 0 6 7 18 15 26 8 9
15 12 15 8 0 -14 29 30 30 44 0 14 30 49 30 36 0 -4 13 9 29 29 15 20 31 34
35 30 3 -3 6 4 6 17 0 12 8 30 18 39 9 9 23 28 31 43 8 15 18 25 23 22 4 -3 8
2 8 11 0 9 5 13 10 10 6 -4 10 5 10 20 0 15 4 24 10 20 6 -3 10 1 10 9 0 9 5
16 10 16 6 0 10 9 10 20 0 11 5 20 10 20 6 0 10 10 10 22 0 12 3 18 7 15 9
-10 35 31 28 43 -3 6 -2 10 2 10 5 0 17 16 27 35 10 19 23 32 27 29 5 -3 9 6
9 20 0 14 5 26 10 26 6 0 10 9 10 20 0 11 5 20 10 20 6 0 10 9 10 20 0 11 5
20 11 20 6 0 9 9 6 20 -4 15 0 20 16 20 15 0 18 3 10 11 -11 11 -6 49 7 49 8
0 19 29 27 70 2 13 9 28 15 31 6 4 8 14 5 22 -3 9 3 27 14 41 11 13 15 27 10
30 -11 7 -2 46 11 46 6 0 8 7 4 15 -3 8 -2 15 2 15 5 0 6 16 4 35 -2 20 0 35
6 35 7 0 10 25 9 65 -1 41 2 66 9 69 8 3 12 62 12 195 1 117 -3 189 -9 186 -9
-6 -13 27 -11 93 1 17 -3 32 -8 32 -6 0 -10 23 -10 51 0 31 -4 48 -10 44 -10
-6 -14 19 -10 63 1 13 -4 22 -13 22 -10 0 -13 8 -10 24 3 13 0 27 -6 30 -6 4
-11 18 -11 32 0 14 -7 32 -15 41 -8 8 -13 19 -10 24 4 5 1 9 -4 9 -6 0 -11 9
-11 20 0 11 -4 20 -10 20 -5 0 -10 7 -10 15 0 9 -6 18 -14 21 -8 3 -12 13 -9
25 3 10 0 19 -6 19 -6 0 -11 6 -11 13 0 6 -14 26 -30 44 -17 18 -30 36 -30 42
0 5 -10 18 -23 28 -13 10 -22 23 -20 29 4 11 -184 204 -199 204 -5 0 -6 5 -3
10 3 6 -1 10 -10 10 -9 0 -30 13 -48 30 -18 16 -38 30 -44 30 -7 0 -18 9 -25
20 -7 11 -21 20 -30 20 -10 0 -18 5 -18 11 0 5 -4 8 -9 4 -5 -3 -16 2 -25 11
-9 8 -20 12 -26 9 -6 -3 -13 1 -16 9 -3 9 -10 14 -14 11 -5 -3 -16 2 -24 11
-9 9 -23 13 -31 10 -8 -3 -21 2 -30 10 -8 9 -15 12 -15 9 0 -4 -11 0 -25 9
-13 9 -33 16 -44 16 -11 0 -23 5 -27 11 -3 6 -21 9 -40 7 -21 -2 -35 1 -38 9
-3 8 -21 12 -47 11 -22 -1 -44 3 -47 9 -4 5 -27 11 -51 11 -24 1 -49 6 -55 11
-16 13 -387 12 -403 -1 -7 -5 -38 -10 -70 -10 -32 -1 -60 -5 -63 -9 -3 -4 -26
-9 -50 -10 -25 -1 -53 -8 -64 -15 -10 -7 -25 -10 -33 -7 -7 3 -22 -2 -32 -11
-13 -12 -21 -14 -26 -6 -4 7 -15 4 -31 -9 -14 -11 -33 -17 -44 -14 -11 3 -20
0 -20 -6 0 -6 -9 -11 -20 -11 -11 0 -20 -4 -20 -10 0 -5 -13 -10 -30 -10 -16
0 -30 -4 -30 -10 0 -5 -9 -10 -20 -10 -11 0 -20 -4 -20 -10 0 -5 -9 -10 -20
-10 -11 0 -20 -4 -20 -10 0 -5 -9 -10 -20 -10 -11 0 -20 -4 -20 -10 0 -5 -11
-10 -25 -10 -19 0 -23 -4 -18 -17 4 -11 3 -14 -5 -9 -7 4 -12 1 -12 -7 0 -10
-8 -13 -26 -9 -19 3 -25 1 -20 -7 5 -7 0 -11 -13 -11 -12 0 -21 -4 -21 -10 0
-5 -7 -10 -16 -10 -8 0 -12 -4 -9 -10 3 -5 0 -10 -8 -10 -7 0 -23 -9 -35 -20
-12 -11 -26 -20 -33 -20 -6 0 -20 -9 -30 -21 -10 -11 -24 -22 -32 -23 -8 -1
-58 -46 -110 -99 -53 -53 -101 -97 -107 -97 -14 0 -66 -52 -62 -62 1 -5 -25
-35 -58 -68 -33 -33 -60 -65 -60 -72 0 -7 -14 -24 -30 -37 -17 -13 -30 -31
-30 -40 0 -9 -9 -23 -20 -31 -11 -8 -20 -19 -20 -25 0 -6 -10 -22 -22 -35 -13
-14 -22 -29 -20 -33 1 -5 -6 -17 -18 -27 -11 -9 -20 -22 -20 -27 0 -5 -10 -20
-22 -33 -13 -14 -22 -29 -20 -33 1 -5 -6 -17 -18 -27 -11 -9 -20 -23 -20 -29
0 -7 -7 -19 -15 -28 -8 -8 -13 -19 -10 -24 4 -5 1 -9 -4 -9 -6 0 -11 -9 -11
-19 0 -11 -4 -21 -9 -23 -5 -1 -11 -10 -13 -18 -2 -8 -8 -20 -15 -27 -15 -17
-5 -53 16 -53 10 0 33 18 51 39 19 22 37 38 40 36 3 -2 6 5 7 15 1 10 15 33
32 51 17 18 31 36 31 40 0 12 43 55 52 52 5 -2 8 2 8 7 0 15 249 260 264 260
6 0 18 9 26 20 8 11 22 20 32 20 10 0 23 9 30 20 7 11 20 20 28 20 9 0 22 9
30 20 8 11 20 20 27 20 15 0 55 21 64 34 4 5 14 6 23 3 10 -4 16 -1 16 8 0 8
9 15 19 15 11 0 23 5 26 10 3 6 17 10 30 10 13 0 27 5 30 10 3 6 17 10 31 10
13 0 24 4 24 9 0 5 12 9 26 9 15 0 29 4 33 9 3 6 26 10 49 10 24 0 47 5 51 11
3 6 31 11 60 10 30 0 56 4 60 10 8 12 314 12 323 -1 3 -6 33 -10 65 -10 32 0
67 -6 79 -13 11 -8 23 -11 27 -8 3 4 23 0 44 -8 21 -9 44 -13 52 -10 8 3 11 0
7 -7 -4 -7 0 -11 11 -11 11 0 23 -4 29 -10 5 -5 19 -11 31 -13 11 -1 28 -9 37
-16 9 -7 16 -11 16 -8 0 8 86 -40 148 -82 28 -19 49 -39 46 -43 -3 -4 2 -8 10
-8 9 0 16 -6 16 -14 0 -8 6 -13 14 -12 17 1 128 -103 123 -117 -2 -6 12 -24
30 -40 18 -16 33 -35 33 -42 0 -7 6 -18 14 -24 16 -13 66 -112 66 -130 0 -7 5
-9 12 -5 8 5 9 0 6 -14 -4 -12 -2 -22 3 -22 10 0 32 -45 34 -72 1 -10 8 -24
15 -33 7 -8 10 -21 7 -29 -3 -8 1 -20 9 -27 8 -6 13 -24 12 -39 -1 -16 3 -35
10 -43 8 -9 11 -38 10 -76 -2 -38 1 -61 7 -61 7 0 11 -47 12 -130 1 -92 -2
-130 -10 -130 -8 0 -12 -25 -11 -78 0 -42 -4 -80 -9 -84 -6 -3 -10 -22 -10
-42 0 -20 -4 -36 -9 -36 -4 0 -8 -8 -8 -19 0 -10 -7 -31 -14 -47 -8 -15 -13
-31 -10 -36 3 -4 -3 -19 -12 -33 -9 -14 -13 -25 -10 -25 4 0 -1 -11 -10 -25
-9 -14 -13 -25 -8 -25 4 0 3 -5 -4 -12 -7 -7 -12 -22 -12 -34 0 -12 -7 -25
-16 -28 -8 -3 -13 -10 -10 -15 7 -11 -32 -81 -45 -81 -5 0 -9 -7 -9 -15 0 -20
-47 -95 -60 -95 -5 0 -7 -7 -4 -15 4 -8 -1 -17 -9 -21 -9 -3 -13 -11 -11 -19
3 -7 -6 -22 -20 -32 -14 -11 -22 -23 -19 -27 3 -3 -10 -22 -30 -42 -23 -23
-34 -42 -30 -52 4 -10 3 -14 -1 -11 -8 8 -76 -56 -76 -71 0 -16 -52 -70 -61
-64 -5 3 -6 -3 -2 -12 4 -12 3 -15 -5 -10 -7 4 -12 1 -12 -10 0 -19 -108 -131
-123 -126 -4 1 -6 -2 -3 -6 7 -12 -28 -44 -39 -35 -4 5 -6 3 -2 -2 3 -6 -1
-19 -9 -30 -8 -10 -14 -16 -14 -12 0 4 -16 -9 -35 -29 -19 -19 -35 -42 -35
-50 0 -13 -12 -18 -32 -15 -5 0 -8 -6 -8 -15 0 -8 -4 -13 -8 -10 -5 3 -16 -6
-26 -19 -10 -14 -23 -22 -29 -18 -5 3 -7 2 -4 -3 3 -6 -30 -45 -74 -88 -43
-43 -79 -82 -79 -86 0 -5 -6 -7 -14 -4 -8 3 -40 -21 -79 -61 -36 -37 -68 -66
-72 -65 -11 2 -55 -38 -55 -51 0 -7 -3 -9 -7 -6 -3 4 -20 -9 -36 -29 -17 -19
-36 -33 -43 -30 -7 3 -15 -2 -18 -10 -3 -9 -10 -12 -16 -9 -6 4 -7 -1 -3 -12
3 -10 3 -15 -1 -12 -4 4 -18 -4 -32 -18 -13 -13 -28 -22 -33 -19 -5 3 -12 -1
-15 -10 -3 -8 -11 -12 -17 -8 -7 4 -10 3 -6 -2 3 -5 -1 -18 -9 -29 -8 -10 -14
-15 -14 -10 0 4 -9 -3 -21 -16 -11 -13 -24 -24 -28 -24 -15 0 -61 -40 -61 -53
0 -7 -4 -10 -10 -7 -5 3 -10 0 -10 -9 0 -8 -8 -13 -17 -12 -17 3 -63 -39 -63
-56 0 -4 -7 -5 -15 -2 -9 4 -29 -9 -52 -35 -21 -22 -44 -42 -52 -43 -17 -4
-61 -46 -61 -58 0 -5 -6 -7 -13 -4 -7 2 -29 -10 -48 -29 -19 -18 -38 -34 -44
-36 -5 -1 -23 -14 -40 -29 -16 -15 -33 -27 -36 -27 -13 0 -59 -40 -59 -52 0
-6 -8 -10 -18 -9 -17 3 -75 -48 -65 -58 3 -2 -3 -3 -12 -2 -18 3 -65 -37 -65
-54 0 -5 -7 -7 -15 -4 -8 4 -27 -8 -46 -30 -17 -20 -35 -34 -39 -31 -5 3 -21
-8 -37 -25 -15 -16 -34 -30 -42 -30 -7 0 -22 -11 -33 -25 -11 -14 -25 -24 -31
-22 -6 2 -25 -10 -41 -27 -17 -17 -33 -31 -37 -31 -11 0 -59 -44 -59 -54 0 -5
-8 -7 -19 -4 -11 3 -21 -2 -24 -11 -4 -9 -12 -13 -20 -10 -7 2 -19 -6 -27 -21
-7 -14 -16 -23 -18 -20 -3 2 -14 -5 -24 -18 -11 -12 -23 -22 -26 -23 -20 -2
-42 -18 -42 -29 0 -8 -8 -12 -19 -10 -12 2 -23 -5 -31 -20 -7 -14 -16 -22 -20
-20 -5 3 -11 -2 -14 -11 -3 -8 -10 -13 -15 -9 -10 6 -61 -40 -61 -55 0 -4 -8
-7 -18 -6 -9 2 -27 -8 -38 -22 -12 -13 -26 -22 -31 -19 -6 4 -16 -4 -23 -17
-7 -13 -19 -23 -28 -22 -24 4 -132 -112 -128 -138 3 -21 6 -21 227 -22 144 0
229 3 238 10 10 8 1033 11 3447 11 2956 0 3434 -2 3434 -14 0 -8 3 -11 6 -8 4
3 16 1 28 -5 11 -7 24 -12 27 -11 9 3 91 -86 106 -114 17 -32 18 -254 2 -270
-7 -7 -11 -53 -10 -122 0 -61 -4 -113 -9 -116 -13 -8 -13 -725 0 -725 5 0 9
-48 9 -117 -1 -77 3 -119 10 -121 6 -2 11 -28 11 -63 0 -34 4 -59 10 -59 6 0
10 -24 9 -57 -2 -36 2 -58 9 -61 7 -2 12 -24 12 -53 0 -27 5 -49 10 -49 6 0
10 -22 10 -50 0 -27 5 -50 10 -50 6 0 10 -18 10 -40 0 -22 5 -40 10 -40 6 0
10 -18 10 -40 0 -22 5 -40 10 -40 6 0 10 -18 10 -40 0 -22 5 -40 10 -40 6 0
10 -13 10 -30 0 -16 5 -30 10 -30 6 0 10 -13 10 -30 0 -16 5 -30 10 -30 6 0
10 -18 10 -40 0 -22 5 -40 10 -40 6 0 10 -13 10 -30 0 -16 5 -30 10 -30 6 0
10 -13 10 -30 0 -16 5 -30 10 -30 6 0 10 -13 10 -30 0 -16 5 -30 10 -30 6 0
10 -9 10 -20 0 -11 5 -20 10 -20 6 0 10 -10 10 -23 0 -26 21 -77 33 -77 4 0 7
-13 7 -30 0 -16 5 -30 10 -30 6 0 10 -9 10 -20 0 -11 5 -20 10 -20 6 0 10 -9
10 -20 0 -11 5 -20 10 -20 6 0 10 -9 10 -20 0 -11 5 -20 10 -20 6 0 10 -13 10
-30 0 -16 5 -30 10 -30 6 0 10 -9 10 -20 0 -11 5 -20 10 -20 6 0 10 -9 10 -20
0 -11 5 -20 10 -20 6 0 10 -9 10 -20 0 -11 5 -20 10 -20 6 0 10 -9 10 -20 0
-11 5 -20 10 -20 6 0 10 -9 10 -20 0 -11 5 -20 10 -20 6 0 10 -8 10 -18 0 -10
9 -24 20 -32 11 -8 20 -21 20 -30 0 -9 9 -22 20 -30 11 -8 20 -26 20 -40 0
-14 9 -32 20 -40 11 -8 20 -22 20 -32 0 -10 5 -18 10 -18 6 0 10 -8 10 -18 0
-10 9 -24 20 -32 11 -8 20 -21 20 -30 0 -9 9 -22 20 -30 11 -8 20 -22 20 -32
0 -10 5 -18 10 -18 6 0 10 -8 10 -18 0 -10 9 -24 20 -32 11 -8 20 -21 20 -28
0 -8 14 -27 30 -42 17 -15 30 -33 30 -39 0 -10 66 -81 76 -81 2 0 4 9 4 20 0
11 5 20 10 20 6 0 10 7 10 16 0 9 10 26 23 37 15 13 18 21 10 24 -7 3 -13 13
-13 24 0 10 -4 19 -10 19 -5 0 -10 8 -10 18 0 10 -9 24 -20 32 -11 8 -20 22
-20 31 0 9 -14 28 -31 42 -17 14 -28 30 -24 36 3 6 -1 14 -9 17 -9 3 -16 13
-16 21 0 9 -9 24 -21 34 -11 10 -18 22 -15 27 3 5 -6 18 -19 28 -14 10 -25 27
-25 36 0 10 -4 18 -10 18 -5 0 -10 9 -10 19 0 11 -8 26 -17 33 -10 7 -19 20
-21 28 -2 8 -8 17 -13 18 -5 2 -9 12 -9 23 0 10 -4 19 -10 19 -5 0 -10 9 -10
20 0 11 -5 20 -11 20 -6 0 -9 9 -6 20 3 13 0 20 -9 20 -8 0 -14 9 -14 20 0 11
-4 20 -10 20 -5 0 -10 6 -10 13 0 18 -24 67 -32 67 -5 0 -8 6 -8 13 0 18 -24
67 -32 67 -5 0 -8 9 -8 20 0 11 -4 20 -10 20 -5 0 -10 9 -10 20 0 11 -4 20
-10 20 -5 0 -10 13 -10 29 0 17 -4 33 -10 36 -5 3 -10 17 -10 31 0 13 -4 24
-10 24 -5 0 -10 9 -10 20 0 11 -5 20 -11 20 -5 0 -8 4 -4 9 3 5 -2 16 -10 24
-8 9 -15 27 -15 41 0 14 -4 28 -10 31 -5 3 -10 17 -10 31 0 13 -4 24 -10 24
-5 0 -10 14 -10 30 0 17 -4 30 -10 30 -5 0 -10 9 -10 20 0 11 -4 20 -8 20 -4
0 -9 12 -10 27 -1 15 -6 29 -10 32 -4 3 -9 22 -10 41 -2 19 -7 37 -12 38 -6 2
-10 17 -10 32 0 16 -4 32 -10 35 -5 3 -10 17 -10 31 0 13 -4 24 -10 24 -6 0
-10 26 -10 59 0 33 -4 63 -10 66 -5 3 -10 17 -10 31 0 13 -4 24 -10 24 -5 0
-10 23 -10 50 0 28 -5 50 -10 50 -6 0 -10 17 -8 37 1 22 -3 38 -10 41 -8 2
-12 27 -12 72 0 38 -4 71 -9 74 -5 3 -9 34 -10 68 0 35 -5 64 -11 66 -6 2 -10
38 -10 82 0 43 -5 82 -10 85 -6 4 -10 156 -9 426 0 251 4 417 10 413 5 -3 9
31 9 81 0 48 4 84 9 81 11 -7 19 65 10 98 -5 16 -2 29 7 37 8 7 14 30 14 55 0
23 5 46 10 49 6 3 10 31 10 61 0 30 5 54 10 54 6 0 10 18 10 39 0 22 5 43 10
46 6 3 10 21 10 40 0 19 5 37 10 40 6 3 10 21 10 40 0 19 5 37 10 40 6 3 10
17 10 31 0 13 5 24 10 24 6 0 10 9 10 20 0 11 6 23 13 26 9 3 12 16 9 36 -3
21 -1 29 7 24 7 -5 11 5 11 29 0 22 4 34 10 30 6 -4 10 5 10 20 0 15 4 24 10
20 6 -3 10 3 10 14 0 11 5 23 10 26 6 3 10 20 10 37 0 17 3 29 6 25 10 -10 34
20 34 43 0 12 5 18 10 15 6 -4 10 5 10 20 0 15 4 24 10 20 6 -3 10 3 10 13 0
11 7 25 15 32 9 7 23 28 31 46 9 19 20 31 25 28 5 -3 9 7 9 22 0 15 3 24 7 21
3 -4 15 5 25 20 10 16 18 24 18 20 0 -5 7 -2 15 7 8 8 15 21 15 28 0 16 294
310 302 303 3 -4 15 5 26 19 10 14 22 22 26 19 3 -3 6 1 6 11 0 9 4 15 9 12 5
-3 12 1 15 10 3 8 10 13 14 10 5 -3 19 6 32 19 13 13 27 22 32 19 4 -3 11 1
14 10 3 8 14 13 24 11 10 -2 21 4 24 12 4 9 9 13 13 9 3 -3 15 1 25 11 10 9
18 12 18 8 0 -4 9 0 20 10 11 10 20 15 20 11 0 -3 10 0 23 9 13 8 27 12 30 8
4 -3 7 0 7 9 0 10 9 14 30 13 16 -1 31 4 34 11 3 7 14 11 25 9 11 -2 24 2 30
9 6 7 26 12 45 11 20 -2 37 3 39 9 3 8 23 12 51 11 25 0 47 4 50 10 2 6 29 10
62 9 33 0 65 4 73 10 10 8 312 11 1015 11 884 0 1002 -1 1013 -15 9 -12 7 -19
-9 -37 -11 -12 -18 -25 -16 -30 6 -10 -28 -43 -36 -35 -3 3 -6 -5 -6 -17 0
-12 -13 -33 -30 -48 -16 -13 -30 -29 -30 -35 0 -16 -47 -68 -55 -60 -4 4 -6
-2 -4 -12 4 -20 -60 -96 -73 -89 -5 2 -8 -3 -8 -13 0 -19 -65 -95 -74 -86 -3
3 -6 -6 -6 -19 0 -13 -9 -30 -20 -37 -11 -7 -20 -18 -20 -25 0 -7 -13 -26 -30
-42 -16 -16 -30 -37 -30 -47 0 -11 -4 -16 -10 -13 -5 3 -10 2 -10 -4 0 -5 -17
-27 -38 -48 -21 -21 -44 -50 -51 -65 -8 -15 -18 -25 -23 -22 -4 3 -8 -6 -8
-20 0 -14 -4 -26 -8 -26 -14 0 -92 -83 -92 -98 0 -7 -7 -20 -15 -28 -8 -9 -15
-12 -15 -7 0 4 -7 -2 -15 -14 -9 -12 -14 -26 -13 -30 2 -4 0 -8 -3 -8 -3 0
-19 -16 -35 -35 -16 -19 -32 -36 -36 -38 -5 -2 -8 -10 -8 -18 0 -8 -18 -30
-40 -50 -22 -20 -40 -41 -40 -48 0 -6 -18 -30 -40 -54 -22 -23 -40 -47 -40
-52 0 -6 -4 -10 -10 -10 -5 0 -10 -7 -10 -15 0 -8 -4 -15 -10 -15 -5 0 -10 -6
-10 -13 0 -7 -18 -31 -40 -52 -22 -21 -39 -45 -37 -51 1 -7 -1 -12 -4 -11 -8
3 -59 -58 -59 -71 0 -6 -18 -27 -40 -48 -22 -21 -40 -44 -40 -51 0 -13 -46
-63 -53 -57 -2 2 -10 -8 -17 -24 -8 -15 -27 -41 -43 -59 -16 -17 -27 -35 -25
-40 6 -10 -28 -44 -36 -36 -3 4 -6 -4 -6 -16 0 -24 -23 -54 -34 -44 -3 4 -6
-1 -6 -11 0 -9 -4 -15 -8 -12 -5 3 -15 -6 -22 -19 -7 -14 -17 -25 -22 -25 -4
0 -8 -6 -8 -14 0 -7 -7 -19 -15 -26 -9 -7 -23 -28 -31 -47 -9 -18 -19 -31 -22
-28 -7 6 -34 -33 -30 -43 5 -10 -70 -81 -78 -73 -4 3 -4 -2 -1 -11 6 -17 -36
-68 -55 -68 -5 0 -8 -7 -8 -15 0 -8 -4 -15 -10 -15 -5 0 -10 -9 -10 -21 0 -11
-4 -17 -10 -14 -5 3 -10 -2 -10 -12 0 -11 -18 -37 -40 -58 -22 -21 -40 -43
-40 -48 0 -14 -47 -67 -54 -60 -3 4 -6 -6 -6 -21 0 -15 -4 -25 -8 -22 -5 3
-15 -6 -22 -19 -7 -14 -17 -25 -22 -25 -4 0 -8 -6 -8 -14 0 -7 -7 -19 -15 -26
-9 -7 -23 -28 -31 -47 -9 -18 -19 -31 -22 -28 -7 6 -34 -33 -30 -43 5 -10 -70
-81 -78 -73 -4 3 -4 -2 -1 -11 3 -10 0 -24 -8 -32 -8 -8 -15 -21 -15 -30 0 -9
-7 -13 -20 -11 -13 2 -20 -2 -20 -11 0 -9 -5 -12 -12 -8 -7 4 -10 4 -6 -1 4
-4 2 -17 -4 -29 -7 -11 -13 -27 -14 -34 -1 -7 -16 -25 -33 -41 -17 -16 -31
-34 -31 -41 0 -15 -26 -41 -34 -33 -3 4 -6 -4 -6 -16 0 -24 -23 -54 -34 -44
-3 4 -6 0 -6 -8 0 -8 -9 -21 -20 -29 -11 -8 -20 -21 -20 -29 0 -7 -8 -21 -18
-30 -9 -9 -23 -28 -31 -43 -8 -15 -18 -25 -23 -22 -4 3 -8 -2 -8 -10 0 -9 -4
-16 -10 -16 -5 0 -10 -8 -10 -18 0 -10 -9 -24 -20 -32 -11 -8 -20 -20 -20 -28
0 -7 -7 -20 -15 -28 -8 -9 -15 -13 -15 -10 0 3 -8 -2 -18 -11 -10 -10 -17 -24
-14 -31 2 -7 -5 -21 -17 -31 -11 -10 -21 -24 -21 -30 0 -6 -16 -27 -36 -46
-19 -19 -33 -38 -30 -43 3 -5 -4 -15 -15 -22 -10 -8 -19 -22 -19 -32 0 -10 -4
-18 -10 -18 -5 0 -10 -9 -10 -21 0 -11 -4 -17 -10 -14 -6 4 -10 -5 -10 -20 0
-15 -4 -24 -10 -20 -6 4 -10 -5 -10 -19 0 -14 -4 -26 -10 -26 -5 0 -10 -9 -10
-21 0 -11 -4 -17 -10 -14 -6 4 -10 -26 -11 -82 -2 -103 0 -117 12 -121 5 -2 9
-17 9 -33 0 -16 5 -29 10 -29 6 0 10 -7 10 -15 0 -27 127 -145 155 -145 14 0
25 -4 25 -10 0 -6 40 -10 100 -10 55 0 100 3 100 8 0 8 49 32 67 32 7 0 13 5
13 10 0 6 7 10 16 10 8 0 37 23 64 50 27 28 53 50 58 50 6 0 8 9 5 20 -3 11 0
20 6 20 6 0 11 6 11 13 0 7 9 22 19 34 11 11 21 31 23 44 1 13 11 31 21 40 9
9 17 22 17 28 0 7 6 19 14 27 8 7 12 23 9 34 -3 11 0 20 6 20 6 0 11 6 11 14
0 7 6 19 14 26 8 6 13 17 10 24 -2 6 7 22 21 34 14 13 23 27 20 32 -3 6 -1 10
4 10 6 0 11 14 11 30 0 17 5 30 10 30 6 0 10 6 10 13 0 7 9 23 20 35 11 12 20
28 20 37 0 8 3 15 8 15 8 0 38 61 34 73 -1 4 2 7 8 7 5 0 10 9 10 19 0 10 7
21 15 25 8 3 12 12 9 21 -4 8 0 17 9 21 9 3 13 12 10 20 -3 8 1 14 11 14 10 0
13 6 10 15 -4 9 3 23 15 34 11 10 21 26 21 35 0 9 5 16 10 16 6 0 10 9 10 20
0 11 5 20 10 20 6 0 10 9 10 19 0 11 4 21 9 23 5 2 11 10 13 18 2 8 11 22 21
31 9 9 17 22 17 28 0 7 7 19 15 28 8 8 13 19 10 24 -4 5 -1 9 4 9 6 0 11 7 11
16 0 9 8 24 18 33 24 23 42 57 42 81 0 12 5 18 10 15 9 -6 14 8 11 28 -1 4 6
10 14 13 8 3 12 10 9 15 -3 5 6 23 21 41 14 17 29 44 32 59 3 16 9 26 14 23 5
-3 10 0 10 5 3 23 5 27 24 49 11 12 20 26 21 30 2 19 20 49 38 67 12 11 20 28
18 39 -3 11 0 16 7 12 7 -4 11 1 11 13 0 12 4 21 8 21 4 0 14 16 21 35 7 19
17 33 22 30 5 -4 9 3 9 13 0 11 7 22 15 26 8 3 12 12 9 19 -3 8 5 23 19 33 13
11 22 25 19 32 -2 6 3 15 11 18 9 3 13 13 9 26 -3 12 -1 19 4 16 10 -5 45 27
37 35 -7 8 46 87 58 87 5 0 7 4 4 10 -7 12 19 53 28 43 4 -3 7 -1 7 5 0 24 2
27 21 49 12 11 27 38 34 60 8 21 14 34 15 29 0 -14 50 47 50 62 0 6 5 12 10
12 6 0 10 8 10 18 0 10 9 24 20 32 11 8 20 22 20 31 0 9 7 19 15 23 8 3 12 12
9 20 -3 9 3 20 15 28 12 7 21 21 21 31 0 10 6 20 14 23 8 3 13 11 10 18 -3 7
10 26 29 43 18 16 32 34 29 41 -2 6 6 17 17 24 12 7 21 21 21 30 0 10 4 18 9
18 5 0 22 25 37 56 15 31 33 58 41 61 7 3 13 13 13 24 0 10 6 22 14 26 7 4 21
22 29 40 9 17 27 40 40 50 12 10 21 26 19 36 -2 10 2 16 9 15 7 -2 14 4 14 12
2 25 17 50 26 44 5 -3 9 2 9 10 0 8 14 30 30 48 17 18 30 38 30 44 0 7 4 14 8
16 11 4 92 129 92 142 0 5 3 6 7 3 7 -7 39 33 36 45 -1 3 4 11 12 18 7 6 11
19 8 27 -4 10 -2 14 3 10 6 -3 19 8 29 26 10 18 27 42 38 55 11 12 17 22 12
22 -5 0 8 16 28 36 20 20 34 40 32 44 -2 4 7 17 20 30 13 13 22 26 20 31 -3 4
7 18 22 31 16 12 34 36 40 51 7 15 20 30 28 33 8 4 12 10 9 15 -7 11 21 51 29
42 4 -3 7 2 7 11 0 10 14 31 30 48 17 16 30 36 30 44 0 8 4 14 8 14 5 0 15 12
23 27 8 15 28 43 46 62 18 19 30 38 27 43 -3 4 2 11 10 14 8 3 18 14 21 25 4
11 11 17 16 14 5 -4 9 3 9 13 0 11 7 22 15 26 8 3 12 11 10 18 -3 8 13 31 35
52 22 21 40 44 40 52 0 8 4 14 8 14 5 0 15 11 22 25 7 13 18 23 24 22 6 -1 10
5 8 15 -1 9 8 25 21 35 13 10 22 23 20 29 -2 6 10 23 27 38 18 14 33 32 34 40
1 7 18 30 39 52 20 21 37 44 37 51 0 6 4 13 9 15 10 3 14 22 12 49 -1 11 -10
15 -28 14 -16 -1 -31 3 -35 9 -10 15 -2509 16 -2514 1 -6 -14 -147 -13 -165 1
-8 6 -33 10 -56 9 -28 -1 -44 4 -48 13 -3 7 -9 11 -14 8 -12 -8 -43 29 -34 39
5 4 3 6 -3 2 -5 -3 -22 6 -36 21 -22 23 -26 37 -27 95 -1 48 2 66 11 65 7 -2
12 4 13 13 0 8 8 23 18 33 9 10 17 23 17 29 0 7 41 52 90 101 50 49 90 93 90
98 0 5 4 7 9 4 5 -3 12 1 15 10 3 8 10 13 15 10 10 -6 61 41 61 57 0 6 3 8 6
4 4 -3 21 10 40 29 18 20 38 33 44 29 5 -3 10 2 10 11 0 10 3 15 6 11 4 -3 14
2 23 13 9 11 23 20 31 22 8 2 28 17 44 35 16 18 32 30 37 28 4 -3 22 11 40 30
19 19 38 34 44 32 12 -4 35 17 35 32 0 6 6 8 14 5 7 -3 29 10 48 28 51 48 62
55 75 51 7 -3 20 5 30 17 10 12 37 30 60 41 23 10 47 27 52 37 6 9 11 13 11 9
0 -4 10 -2 23 5 12 7 26 12 30 13 4 0 12 6 16 14 5 7 13 11 19 7 6 -3 19 4 29
17 10 13 26 23 36 21 9 -1 17 4 17 12 0 9 4 13 9 9 5 -3 15 0 23 7 7 7 20 14
28 16 8 2 18 9 22 15 4 7 8 8 8 3 0 -4 11 -1 25 8 13 9 31 16 40 16 10 0 13 5
9 12 -5 8 0 9 14 6 15 -4 22 -2 22 8 0 8 6 14 13 13 30 -4 58 2 52 11 -3 6 3
10 14 10 11 0 23 5 26 11 4 6 13 8 21 5 8 -3 14 1 14 10 0 10 6 14 15 10 9 -3
18 1 21 9 4 8 10 13 14 10 5 -3 14 0 22 7 7 7 24 15 38 16 14 2 30 8 37 14 7
5 17 7 23 3 5 -3 10 0 10 7 0 8 12 15 26 16 15 1 33 7 40 13 8 6 20 9 28 6 7
-3 33 4 57 17 52 26 53 26 80 26 13 0 18 4 13 11 -5 8 1 10 20 7 17 -4 29 -1
32 7 3 7 19 12 36 11 17 -1 35 2 42 8 6 6 22 13 36 14 14 2 30 8 37 14 6 5 17
8 25 7 29 -4 59 1 54 9 -3 5 11 9 31 10 19 1 40 6 47 11 6 5 27 9 46 9 56 0
62 1 55 12 -3 5 9 9 29 8 19 -1 41 4 48 10 8 6 38 11 68 10 37 -1 54 2 53 10
-2 8 12 11 40 11 78 -2 108 1 102 10 -3 6 26 9 71 8 49 -2 78 2 81 9 3 8 52
11 156 12 95 0 151 4 150 10 -3 13 298 13 314 0 7 -6 86 -10 177 -10 115 -1
166 -4 169 -12 3 -8 30 -11 78 -10 45 2 76 -2 80 -8 4 -6 32 -11 62 -10 38 0
57 -4 61 -13 3 -10 16 -12 40 -8 22 3 42 1 51 -7 8 -7 34 -12 57 -12 24 1 45
-4 49 -10 4 -6 39 -10 80 -10 99 0 93 -1 121 27 32 31 32 69 0 73 -12 2 -20 7
-18 11 3 4 -11 8 -31 9 -20 1 -41 6 -47 12 -5 5 -32 10 -58 10 -26 0 -48 4
-48 8 0 5 -14 9 -31 10 -17 0 -36 5 -42 10 -7 6 -32 9 -56 9 -25 -1 -45 3 -48
9 -3 7 -36 12 -90 12 -53 1 -89 5 -93 12 -4 7 -25 11 -46 10 -66 -3 -95 0 -90
9 3 5 -200 9 -464 9 -269 0 -472 -4 -476 -9 -3 -5 -38 -9 -78 -9 -39 0 -77 -5
-82 -10 -6 -6 -44 -11 -85 -12 -41 0 -77 -6 -81 -12 -4 -6 -26 -9 -49 -7 -26
2 -45 -2 -49 -10 -5 -7 -29 -12 -59 -12 -28 1 -54 -3 -57 -8 -3 -5 -23 -9 -45
-9 -26 0 -39 -4 -39 -14 0 -9 -8 -12 -26 -8 -16 3 -29 -1 -35 -9 -5 -8 -21
-13 -40 -11 -17 2 -35 -1 -39 -8 -4 -6 -21 -12 -39 -12 -17 -1 -34 -5 -37 -10
-3 -4 -15 -8 -28 -8 -12 0 -27 -5 -32 -10 -6 -6 -27 -11 -47 -12 -20 -1 -34
-5 -31 -10 3 -4 -11 -8 -30 -8 -20 0 -36 -4 -36 -10 0 -5 -11 -10 -24 -10 -14
0 -28 -4 -31 -10 -3 -5 -15 -10 -26 -10 -10 0 -18 -6 -16 -12 1 -9 -8 -12 -27
-9 -16 1 -32 -2 -35 -8 -4 -6 -17 -12 -29 -14 -12 -2 -25 -6 -28 -10 -4 -4
-15 -7 -24 -7 -9 0 -38 -11 -64 -24 -27 -14 -55 -22 -62 -19 -8 3 -14 0 -14
-6 0 -6 -7 -11 -16 -11 -8 0 -22 -7 -31 -15 -8 -8 -18 -13 -23 -10 -4 3 -11
-2 -14 -11 -3 -8 -10 -12 -16 -9 -6 3 -17 -1 -25 -9 -9 -8 -21 -13 -28 -10 -7
2 -23 -5 -35 -16 -12 -11 -33 -21 -47 -22 -14 -1 -25 -6 -25 -10 0 -4 -9 -8
-20 -8 -11 0 -20 -7 -20 -16 0 -8 -4 -12 -10 -9 -5 3 -10 1 -10 -4 0 -6 -7
-11 -16 -11 -8 0 -22 -7 -31 -15 -8 -8 -19 -13 -24 -10 -5 4 -9 1 -9 -4 0 -6
-9 -11 -20 -11 -11 0 -20 -6 -20 -14 0 -9 -7 -12 -20 -9 -14 4 -20 0 -20 -10
0 -10 -6 -13 -20 -10 -14 4 -20 0 -20 -11 0 -10 -4 -14 -10 -11 -5 3 -10 1
-10 -4 0 -6 -7 -11 -16 -11 -18 0 -46 -25 -37 -34 4 -3 -6 -6 -20 -6 -15 0
-27 -4 -27 -10 0 -5 -6 -10 -14 -10 -8 0 -23 -10 -33 -23 -10 -13 -23 -22 -29
-20 -5 2 -20 -6 -32 -17 -11 -11 -27 -20 -35 -20 -7 0 -19 -11 -27 -24 -7 -14
-18 -22 -26 -19 -8 3 -17 -2 -20 -11 -3 -9 -10 -14 -14 -11 -4 3 -11 -2 -14
-11 -3 -8 -10 -13 -14 -10 -5 3 -19 -6 -32 -19 -13 -13 -26 -22 -30 -20 -5 3
-22 -10 -38 -29 -17 -19 -33 -32 -37 -28 -3 4 -21 -10 -39 -30 -19 -21 -36
-34 -40 -31 -3 3 -6 -1 -6 -11 0 -9 -4 -15 -9 -12 -5 3 -12 -1 -15 -10 -3 -8
-10 -13 -15 -10 -5 3 -23 -10 -40 -29 -17 -20 -31 -32 -31 -28 0 4 -8 -4 -18
-18 -9 -14 -22 -24 -28 -22 -6 2 -22 -9 -36 -24 -13 -16 -36 -37 -49 -49 -13
-11 -43 -42 -66 -68 -24 -26 -43 -46 -43 -43 0 3 -20 -15 -45 -41 -25 -25 -45
-50 -45 -56 0 -5 -2 -7 -5 -4 -7 7 -75 -61 -75 -75 0 -6 -3 -7 -6 -4 -4 4 -20
-10 -35 -30 -16 -20 -29 -32 -29 -27 0 4 -7 -1 -15 -12 -8 -10 -15 -28 -15
-38 0 -11 -3 -16 -7 -13 -3 4 -15 -5 -25 -20 -10 -16 -18 -23 -18 -18 0 6 -9
-3 -20 -20 -11 -16 -20 -26 -20 -21 0 19 -29 -29 -30 -48 0 -11 -3 -17 -6 -14
-9 10 -54 -42 -54 -63 0 -11 -4 -18 -8 -15 -5 3 -15 -6 -22 -19 -7 -13 -17
-22 -22 -19 -4 3 -8 -3 -8 -13 -1 -17 -30 -66 -30 -49 0 4 -7 1 -15 -8 -8 -8
-15 -21 -15 -30 0 -8 -4 -18 -10 -21 -5 -3 -10 -16 -10 -27 0 -12 -3 -18 -6
-15 -4 4 -19 -9 -34 -28 -15 -19 -30 -32 -34 -28 -3 3 -6 -3 -6 -14 0 -11 -13
-32 -30 -46 -16 -15 -30 -36 -30 -48 0 -11 -4 -18 -9 -15 -5 3 -16 -10 -26
-30 -9 -19 -23 -38 -31 -41 -8 -3 -14 -13 -14 -22 0 -10 -15 -32 -34 -49 -19
-17 -42 -47 -51 -67 -10 -19 -21 -32 -26 -29 -5 3 -9 -2 -9 -11 0 -9 -4 -14
-9 -11 -4 3 -18 -15 -31 -39 -13 -24 -27 -42 -31 -39 -5 3 -9 -3 -9 -12 0 -10
-3 -15 -6 -11 -3 3 -23 -14 -44 -38 -21 -24 -41 -41 -44 -38 -3 4 -6 -2 -6
-12 0 -10 -3 -15 -6 -12 -4 4 -19 -9 -34 -28 -15 -19 -30 -32 -34 -28 -3 3 -6
-1 -6 -11 0 -9 -4 -15 -8 -12 -5 3 -15 -6 -22 -19 -7 -13 -17 -22 -22 -19 -4
3 -8 -3 -8 -12 0 -10 -3 -14 -6 -11 -4 4 -18 -8 -33 -26 -14 -18 -33 -32 -41
-32 -12 0 -60 -39 -60 -50 0 -11 -48 -51 -57 -48 -6 2 -19 -7 -30 -20 -10 -13
-23 -22 -30 -20 -6 2 -19 -6 -29 -19 -11 -13 -26 -23 -34 -23 -8 0 -22 -9 -30
-21 -8 -12 -23 -20 -32 -18 -10 1 -18 -4 -18 -11 0 -8 -8 -12 -19 -10 -11 2
-22 -3 -25 -11 -3 -9 -10 -12 -16 -9 -6 3 -13 0 -16 -9 -3 -8 -14 -13 -24 -11
-10 2 -21 -3 -24 -11 -3 -9 -10 -13 -15 -10 -5 3 -14 -1 -21 -9 -7 -8 -16 -12
-21 -9 -5 3 -12 -1 -15 -9 -3 -8 -16 -13 -30 -11 -14 1 -27 -3 -30 -10 -3 -7
-15 -12 -27 -11 -12 1 -31 -4 -42 -10 -11 -7 -32 -11 -47 -10 -17 1 -28 -3
-28 -10 0 -8 -12 -12 -29 -10 -17 1 -32 -3 -35 -10 -3 -9 -20 -12 -50 -10 -28
1 -47 -2 -50 -10 -3 -8 -27 -11 -70 -10 -41 1 -66 -3 -66 -9 0 -8 -247 -11
-827 -10 -456 1 -830 2 -832 3 -2 0 4 10 14 21 10 11 21 18 25 15 4 -2 17 7
30 20 13 13 27 22 32 19 4 -3 11 2 14 10 3 9 10 14 14 11 4 -3 11 2 14 11 3 9
12 14 18 12 7 -3 21 6 32 19 10 13 21 22 24 18 3 -3 18 7 34 22 15 14 31 24
34 20 4 -3 15 5 26 18 10 14 22 24 26 22 11 -3 62 39 62 51 0 6 9 9 20 7 13
-2 20 2 20 11 0 8 4 13 9 10 5 -3 12 1 15 10 3 8 10 12 16 9 6 -3 13 1 16 9 3
9 10 13 15 10 5 -3 9 2 9 10 0 10 6 13 15 10 8 -4 17 1 21 10 3 9 10 14 14 11
4 -3 11 2 14 11 3 8 10 12 16 9 6 -3 13 1 16 9 3 9 10 14 14 11 4 -3 11 2 14
11 4 9 9 14 13 10 4 -3 19 5 34 20 15 14 30 25 34 24 10 -3 75 59 75 71 0 6 5
7 11 4 5 -4 19 1 30 11 10 9 19 13 19 9 0 -5 13 3 28 18 16 15 31 25 34 22 3
-4 15 5 26 19 10 14 22 22 26 19 3 -3 6 -1 6 5 0 7 6 12 13 12 8 0 24 11 37
25 12 13 25 24 29 23 15 -3 41 15 41 29 0 8 4 12 9 9 5 -3 12 1 15 9 3 8 10
14 14 13 5 -2 25 10 43 27 19 16 37 29 41 28 4 -2 16 8 26 22 11 13 22 21 26
18 3 -4 20 6 36 22 17 16 30 25 30 19 0 -5 7 0 15 10 8 11 15 16 15 12 0 -5 9
3 21 18 11 14 24 24 29 21 5 -3 23 10 41 29 18 19 36 33 40 30 4 -2 16 7 27
21 11 13 22 21 26 18 3 -3 6 1 6 9 0 9 7 15 16 14 17 -3 64 38 64 55 0 6 4 8
9 5 5 -3 12 1 15 10 3 9 12 14 18 12 7 -3 25 10 39 28 15 19 29 31 33 27 3 -3
33 20 66 52 34 31 63 55 65 53 6 -6 175 163 175 176 0 5 3 7 6 3 4 -3 13 1 21
9 8 8 19 12 24 9 5 -4 9 6 9 20 0 14 4 24 9 21 5 -3 12 1 15 10 3 9 12 14 18
12 7 -3 25 11 40 30 16 19 28 32 28 28 0 -4 18 13 39 38 21 25 42 42 45 39 3
-4 6 3 6 14 0 11 29 48 70 87 39 37 70 73 70 79 0 6 3 7 7 4 9 -9 32 24 33 47
0 11 3 17 6 13 3 -3 23 14 44 38 21 24 40 42 43 39 3 -3 11 9 18 25 8 17 17
31 21 31 5 0 8 7 8 16 0 8 4 13 9 10 5 -3 16 9 25 27 8 17 27 43 41 56 14 13
25 27 25 33 0 5 5 6 10 3 6 -3 10 0 10 8 0 19 27 72 45 87 8 7 15 18 15 25 0
7 7 18 15 25 18 15 45 68 45 87 0 8 5 11 10 8 6 -3 10 2 10 12 1 22 24 55 33
46 4 -3 7 6 7 20 0 15 5 27 10 27 6 0 10 9 10 20 0 11 6 20 14 20 9 0 12 8 8
25 -3 18 2 31 17 44 11 10 21 30 21 45 0 14 5 26 10 26 6 0 10 13 10 29 0 16
5 31 11 33 6 2 12 16 12 31 0 15 3 27 8 27 5 0 9 15 9 34 0 19 5 38 10 41 6 3
10 19 10 35 0 15 6 30 12 32 8 3 11 20 9 48 -1 25 2 46 9 50 14 9 15 493 0
498 -6 2 -10 26 -10 53 0 27 -4 49 -10 49 -5 0 -10 18 -10 40 0 22 -4 40 -10
40 -5 0 -10 10 -10 23 0 12 -7 30 -15 41 -10 13 -11 25 -5 42 6 16 5 26 -3 31
-16 11 -37 49 -37 68 0 8 -4 15 -10 15 -5 0 -10 9 -10 20 0 11 -4 20 -10 20
-5 0 -10 9 -10 20 0 11 -4 20 -10 20 -5 0 -10 12 -10 27 0 14 -3 24 -6 20 -8
-8 -25 10 -43 46 -8 15 -18 27 -23 27 -4 0 -8 6 -8 13 0 7 -9 23 -20 35 -11
12 -20 26 -20 32 0 15 -67 80 -74 73 -3 -4 -6 -2 -6 4 0 14 -142 157 -160 161
-7 2 -25 16 -40 32 -16 17 -34 30 -40 30 -7 0 -21 10 -31 21 -11 12 -25 19
-34 16 -8 -4 -14 -1 -12 6 1 7 -6 12 -16 12 -11 0 -26 9 -35 20 -10 11 -28 21
-42 22 -14 1 -26 7 -28 13 -2 5 -10 10 -18 10 -7 0 -29 9 -49 20 -20 11 -44
20 -55 20 -10 0 -21 4 -24 9 -3 5 -19 8 -36 7 -17 -1 -32 4 -34 11 -3 8 -22
13 -46 13 -22 0 -40 4 -40 9 0 5 -39 9 -86 9 -51 -1 -89 3 -93 10 -4 6 -47 10
-112 10 -59 0 -111 2 -118 6 -6 4 -11 1 -11 -8z"/>
<path d="M10244 6953 c-12 -2 -29 -12 -39 -23 -15 -16 -15 -22 -2 -59 10 -30
11 -58 5 -99 -4 -31 -5 -95 -1 -142 5 -47 6 -193 4 -325 -9 -582 -7 -771 13
-960 3 -22 7 -71 11 -109 3 -37 8 -82 10 -99 2 -18 7 -66 11 -107 3 -41 8 -82
9 -91 24 -124 24 -665 0 -829 -4 -26 16 -68 34 -73 21 -5 378 0 480 7 79 6
113 13 122 28 7 10 3 90 -6 128 -8 34 -7 134 1 222 4 40 8 92 8 116 0 23 4 42
8 42 14 0 86 -107 138 -205 29 -55 76 -131 105 -170 29 -38 64 -91 79 -116 14
-25 34 -53 44 -62 23 -20 70 -27 123 -17 24 5 76 12 114 16 39 4 79 8 90 9 11
1 77 3 147 4 118 1 128 3 138 22 15 28 -11 65 -142 199 -164 168 -288 314
-359 423 -45 69 -90 123 -140 168 -117 105 -126 115 -133 137 -10 29 20 82
109 199 98 130 164 202 317 350 35 34 84 90 109 124 93 131 166 215 211 244
38 24 47 35 45 55 -2 24 -5 25 -72 26 -80 2 -120 7 -260 30 -348 57 -437 15
-693 -328 -55 -73 -117 -150 -138 -171 -38 -38 -38 -38 -47 -15 -12 29 -14
225 -5 338 19 219 29 954 15 1021 -7 33 -13 39 -60 57 -28 12 -68 24 -87 27
-45 7 -289 14 -316 8z m120 -96 c24 3 46 1 49 -4 3 -5 -18 -27 -46 -49 -77
-60 -76 -60 -75 -14 0 22 -5 46 -11 54 -10 11 -8 15 6 18 10 3 22 1 26 -2 5
-4 28 -5 51 -3z m240 -26 c19 -16 21 -51 4 -51 -7 0 -42 -5 -77 -10 -36 -5
-68 -7 -73 -4 -15 9 12 43 50 63 41 22 71 22 96 2z m-79 -135 c-16 -8 -56 -38
-88 -68 -73 -70 -105 -88 -117 -68 -6 8 -10 25 -10 37 0 12 -4 25 -10 28 -17
10 -11 27 8 23 9 -2 25 3 35 12 26 22 116 49 167 49 l45 0 -30 -13z m70 -82
c-1 -41 -5 -43 -95 -69 -36 -10 -76 -28 -89 -39 -16 -15 -22 -16 -19 -6 8 26
154 145 180 147 22 2 24 -1 23 -33z m-16 -111 c-39 -48 -125 -110 -216 -157
-57 -28 -67 -31 -58 -16 3 5 1 19 -5 30 -20 38 22 67 185 126 105 38 112 40
94 17z m0 -133 c-22 -81 -22 -83 -9 -75 6 3 10 2 10 -4 0 -5 -19 -24 -42 -43
-24 -18 -49 -37 -56 -43 -7 -5 -19 -15 -26 -22 -24 -21 -110 -73 -121 -73 -7
0 -12 25 -13 68 -2 67 -1 68 31 85 17 10 63 47 101 84 60 56 112 91 138 93 4
0 -2 -31 -13 -70z m1 -234 l0 -44 -69 -16 c-39 -9 -85 -16 -103 -16 l-33 0 30
16 c17 8 47 29 68 45 29 24 87 56 105 59 1 0 2 -20 2 -44z m-36 -87 c-4 -8 0
-8 15 0 13 7 21 8 21 2 0 -21 -62 -80 -128 -122 -37 -23 -86 -58 -109 -76
l-42 -34 -6 35 c-4 19 -4 51 -1 73 3 21 5 43 6 49 0 6 37 19 83 28 45 10 98
26 117 36 40 22 54 25 44 9z m829 -104 c-2 -9 -93 -35 -178 -49 l-40 -7 22 22
c11 12 43 28 70 35 54 15 129 14 126 -1z m-783 -44 c0 -37 -2 -39 -37 -46 -21
-4 -42 -10 -48 -13 -18 -12 -110 -40 -115 -35 -11 11 95 93 144 111 28 11 52
20 54 21 1 0 2 -16 2 -38z m973 13 c51 -8 39 -20 -30 -29 -32 -4 -64 -8 -73
-10 -8 -1 -37 -6 -63 -9 -27 -4 -59 -9 -70 -12 -12 -2 -49 -7 -82 -9 -60 -6
-60 -6 -38 13 12 10 50 25 85 32 35 7 86 18 113 25 49 12 84 12 158 -1z m104
-100 c-32 -31 -83 -86 -114 -122 -164 -193 -212 -234 -331 -285 -72 -31 -311
-83 -436 -95 -74 -7 -83 -6 -73 7 23 27 153 80 324 130 261 77 312 101 283
136 -9 10 3 19 49 41 34 15 62 32 62 38 4 38 -12 57 -42 51 -64 -13 -161 -17
-155 -7 3 6 14 10 24 10 16 -1 97 28 337 117 131 49 142 46 72 -21z m-1127
-36 c-19 -16 -81 -60 -137 -98 l-101 -70 -7 40 c-8 47 2 100 18 101 40 2 212
45 236 59 31 17 25 -3 -9 -32z m874 33 c29 -1 16 -8 -29 -15 -59 -9 -148 -43
-249 -92 -49 -24 -94 -44 -101 -44 -7 0 -20 11 -29 25 -15 23 -15 25 7 46 30
29 94 56 164 68 84 16 118 17 237 12z m-837 -122 c-3 -23 -15 -51 -26 -63 -19
-18 -201 -89 -209 -81 -7 6 135 136 174 160 58 36 68 33 61 -16z m733 -34 c0
-12 -423 -159 -441 -153 -5 2 16 31 47 66 46 51 59 60 70 51 21 -17 174 -5
249 19 67 22 75 24 75 17z m-767 -124 c-20 -27 -140 -123 -190 -153 l-28 -16
-3 53 c-3 67 5 75 110 115 46 17 92 34 103 39 28 12 31 -6 8 -38z m467 -53
c-14 -5 -34 -12 -45 -14 -11 -2 -49 -13 -85 -24 -39 -12 -68 -16 -74 -10 -9 9
-4 11 124 41 85 20 117 23 80 7z m-452 -54 c-3 -34 -6 -37 -63 -56 -33 -11
-66 -25 -73 -30 -7 -6 -15 -9 -18 -6 -8 8 125 128 142 128 11 0 14 -9 12 -36z
m2 -97 c0 -16 -27 -46 -95 -105 -52 -45 -97 -82 -99 -82 -3 0 -10 25 -17 56
-12 51 -11 56 8 76 19 18 160 76 191 77 6 1 12 -9 12 -22z m625 -29 c-9 -33
-56 -98 -85 -119 -16 -12 -52 -21 -95 -25 -38 -4 -85 -12 -102 -20 -28 -11
-33 -11 -33 2 0 7 -4 14 -8 14 -14 0 -32 -23 -32 -41 0 -13 -28 -28 -106 -58
-58 -23 -146 -61 -195 -85 -49 -24 -89 -41 -89 -38 0 14 114 112 184 157 120
78 234 131 441 206 101 36 129 38 120 7z m-265 -18 c-8 -6 -39 -17 -68 -25
-42 -12 -61 -13 -93 -5 -23 6 -47 9 -55 6 -24 -9 -15 3 13 18 31 16 228 22
203 6z m-277 -34 c3 -12 -113 -76 -138 -76 -17 0 -16 4 11 31 17 16 48 36 70
44 41 15 54 15 57 1z m-53 -94 c0 -22 -39 -66 -100 -112 -25 -19 -55 -45 -67
-59 l-22 -25 -7 28 c-11 44 2 109 26 128 28 23 54 24 46 2 -4 -12 1 -10 23 6
24 16 85 48 99 50 1 0 2 -8 2 -18z m360 -122 c0 -17 -6 -20 -42 -19 l-43 0 40
19 c22 10 41 19 43 19 1 1 2 -8 2 -19z m-307 -74 c-10 -14 -60 -50 -110 -81
-51 -31 -101 -67 -112 -81 -10 -13 -21 -24 -24 -24 -4 0 -5 26 -5 58 l2 58 45
12 c68 18 70 18 146 51 39 17 71 31 73 31 2 0 -5 -11 -15 -24z m272 -28 c-86
-46 -434 -182 -443 -173 -7 7 24 44 64 76 93 74 210 115 334 117 l85 2 -40
-22z m159 -33 c23 -18 25 -15 -46 -48 -64 -31 -84 -33 -91 -13 -3 8 -16 16
-29 18 -19 3 -13 8 32 31 61 30 105 34 134 12z m54 -77 c-13 -37 -159 -105
-203 -94 -23 6 -65 42 -65 56 0 3 15 7 33 8 17 2 64 11 102 21 84 23 138 26
133 9z m-413 -30 c-4 -9 -48 -45 -98 -81 -125 -88 -202 -165 -183 -184 18 -18
92 -2 173 36 136 66 124 50 -62 -81 -66 -46 -125 -87 -130 -90 -9 -6 -15 58
-19 232 l-1 55 51 25 c79 39 265 111 272 105 1 -1 0 -9 -3 -17z m509 -50 c19
-24 34 -44 32 -45 -11 -11 -276 -27 -276 -16 0 11 85 66 125 81 26 9 52 17 77
21 3 0 22 -18 42 -41z m-447 -25 c29 -71 37 -115 37 -213 0 -107 -13 -340 -20
-351 -2 -3 -72 -7 -156 -7 l-153 -1 27 22 c15 12 47 37 72 55 51 36 56 48 26
57 -21 7 -57 -10 -135 -61 -27 -18 -63 -36 -79 -40 -28 -7 -29 -6 -22 22 10
41 33 63 91 90 54 26 108 30 168 13 23 -6 43 -6 54 -1 14 9 14 11 -6 28 -17
15 -43 20 -116 24 l-95 5 107 80 c126 93 193 155 193 177 0 9 -8 26 -18 38
l-18 22 -104 -50 c-58 -27 -107 -48 -109 -46 -14 12 203 164 233 164 6 0 16
-12 23 -27z m423 -54 c0 -20 -53 -67 -89 -79 -34 -11 -45 -11 -66 0 -55 29
-19 64 81 79 64 9 74 9 74 0z m114 -55 c9 -8 16 -19 16 -23 0 -11 -95 -40
-155 -47 -48 -5 -49 -5 -30 11 20 17 134 75 147 75 4 0 14 -7 22 -16z m40 -95
c-36 -38 -141 -114 -171 -123 -19 -6 -26 0 -48 44 -28 55 -26 70 8 70 12 1 56
9 97 20 41 10 90 19 109 19 l35 1 -30 -31z m117 -99 c6 0 8 -4 5 -8 -4 -6
-148 -8 -191 -2 -5 0 24 18 65 40 l75 38 18 -34 c9 -19 22 -34 28 -34z m-33
-38 c14 -10 -14 -29 -125 -87 l-52 -27 -30 34 c-17 18 -31 36 -31 40 0 10 37
29 68 34 15 3 28 6 29 8 8 7 130 5 141 -2z m121 -51 c10 -6 4 -12 -22 -20 -19
-7 -42 -20 -50 -29 -15 -17 -14 -18 18 -14 41 5 46 -10 10 -34 -36 -24 -185
-73 -201 -67 -27 10 -13 24 51 54 65 31 87 55 40 47 -17 -4 -25 -1 -25 8 0 8
1 14 3 14 1 0 29 11 62 25 64 26 92 30 114 16z m107 -119 c10 -6 37 -29 59
-52 l40 -42 -70 6 c-95 10 -169 10 -235 2 l-55 -7 30 25 c17 14 59 41 94 60
66 34 86 36 137 8z"/>
<path d="M4367 6664 c-1 -1 -18 -4 -37 -7 -50 -7 -82 -21 -106 -48 -62 -68
-73 -145 -69 -459 4 -265 11 -380 27 -450 10 -45 11 -58 7 -220 -1 -47 1 -152
6 -235 4 -82 9 -204 11 -270 2 -66 5 -142 8 -170 16 -185 20 -273 21 -454 1
-189 2 -204 20 -217 29 -21 84 -34 172 -39 227 -13 282 -17 328 -21 28 -3 129
-6 225 -8 155 -3 194 0 335 24 300 52 340 62 434 108 196 98 291 192 339 338
28 83 32 116 39 315 5 153 3 183 -12 230 -44 132 -147 229 -357 336 l-98 49
51 50 c92 89 160 212 177 318 11 73 5 209 -13 276 -18 70 -78 197 -126 266
-102 149 -294 215 -659 225 -41 1 -86 6 -100 11 -51 19 -129 29 -270 33 -80 3
-170 8 -200 11 -60 7 -149 12 -153 8z m180 -107 c127 -1 235 -5 238 -9 4 -4
-10 -27 -30 -52 -43 -52 -36 -61 13 -15 17 16 37 27 42 24 6 -3 23 3 39 14 33
24 59 26 96 9 35 -16 32 -22 -18 -36 -60 -18 -112 -51 -100 -63 6 -6 27 -2 57
11 56 24 56 24 56 8 0 -7 -22 -26 -47 -43 -26 -16 -58 -46 -71 -65 -13 -19
-28 -35 -33 -35 -5 0 -14 -6 -18 -14 -5 -8 -16 -11 -24 -8 -9 3 -29 -6 -49
-24 -32 -29 -236 -168 -331 -225 -26 -16 -60 -37 -75 -46 l-27 -17 -1 77 c-2
163 -6 193 -27 201 -17 7 -15 10 17 25 41 19 47 36 14 37 l-23 0 23 16 c22 15
31 63 12 63 -6 0 -8 -11 -4 -25 5 -19 2 -25 -10 -25 -19 0 -20 20 -6 139 10
91 25 122 44 96 10 -14 46 -16 243 -18z m673 -62 c36 -4 67 -8 70 -10 3 -2 23
-6 45 -9 49 -8 107 -26 119 -36 5 -5 -11 -14 -35 -20 -66 -17 -69 -18 -69 -35
0 -10 5 -13 12 -9 6 4 24 8 38 8 35 1 29 -17 -16 -43 -18 -11 -36 -31 -40 -45
-6 -26 -24 -36 -24 -14 0 6 -26 -14 -58 -45 l-59 -55 -64 16 c-35 9 -66 22
-69 27 -2 6 29 24 70 42 75 32 140 76 130 86 -3 3 -42 -9 -87 -27 -86 -35 -97
-32 -33 9 21 13 58 44 82 67 l43 43 -83 3 c-75 3 -85 0 -115 -22 -33 -26 -61
-38 -112 -50 l-30 -8 21 24 c26 27 54 81 54 101 0 16 67 16 210 2z m-32 -80
c-2 -3 -36 -20 -75 -39 -53 -26 -84 -50 -127 -100 -34 -39 -70 -69 -89 -75
-43 -14 -137 -20 -162 -11 -17 6 -11 13 45 49 74 48 263 142 330 165 44 15 88
21 78 11z m411 -53 c13 -8 -22 -24 -58 -27 -23 -1 -50 -9 -59 -18 -20 -17 -67
-41 -102 -52 l-24 -8 19 29 c23 36 58 64 107 86 21 9 41 24 44 33 6 14 11 12
38 -12 17 -15 33 -29 35 -31z m83 -71 c4 -28 1 -31 -81 -69 -47 -22 -97 -43
-111 -47 -22 -6 -23 -6 -10 8 21 22 181 137 190 137 4 0 10 -13 12 -29z m-152
-23 c-14 -11 -41 -34 -60 -50 -19 -17 -49 -36 -65 -43 -17 -7 -45 -30 -63 -49
l-33 -37 -30 18 c-49 29 -53 38 -24 67 14 14 25 30 25 37 0 8 4 8 15 -1 12
-10 29 -4 94 29 75 38 149 63 161 54 3 -3 -6 -14 -20 -25z m84 -107 c-27 -21
-82 -59 -123 -84 l-74 -46 -27 22 c-15 12 -26 25 -24 28 10 19 247 118 283
119 7 0 -8 -17 -35 -39z m119 -23 c7 -26 8 -26 -23 -31 -14 -3 -65 -24 -114
-46 -49 -23 -91 -40 -93 -37 -3 3 32 29 78 59 139 89 143 90 152 55z m-1103
-9 c0 -24 -35 -67 -79 -97 -46 -32 -171 -86 -171 -74 0 3 -5 1 -12 -6 -7 -7
-18 -12 -25 -12 -25 0 9 37 55 59 24 12 46 30 49 41 3 11 11 16 19 13 8 -3 14
0 14 7 0 6 6 10 12 8 7 -3 22 4 33 15 20 19 83 56 98 57 4 0 7 -5 7 -11z m500
-43 c127 -60 200 -113 200 -145 0 -35 -29 -88 -62 -115 -18 -15 -48 -41 -65
-58 -18 -18 -35 -29 -38 -26 -4 3 -30 0 -58 -8 -104 -28 -123 -27 -207 11 -89
40 -110 43 -135 15 -10 -11 -14 -20 -10 -20 5 0 4 -5 -3 -12 -9 -9 -15 -9 -24
0 -9 9 -9 15 0 24 16 16 15 21 -8 49 -17 18 -20 32 -15 69 15 129 34 210 49
216 6 2 56 5 111 8 58 2 114 10 135 19 37 16 42 15 130 -27z m554 -48 c-42
-34 -174 -97 -174 -83 0 33 120 101 184 104 15 1 13 -3 -10 -21z m112 -30 c10
-31 7 -123 -7 -183 -28 -122 -132 -264 -258 -352 -36 -26 -79 -59 -94 -74 -34
-34 -113 -61 -153 -54 -23 5 -37 -1 -66 -25 -21 -17 -38 -35 -38 -40 0 -12 57
3 139 39 116 49 195 36 92 -16 -23 -12 -54 -30 -69 -39 l-27 -18 25 -8 c14 -4
-74 -5 -195 -2 -121 3 -221 7 -223 8 -2 2 -31 -5 -64 -16 -58 -18 -118 -17
-118 1 0 5 26 23 58 40 100 56 162 98 155 104 -15 16 -46 4 -87 -33 -26 -24
-53 -40 -68 -40 -13 0 -46 -14 -72 -30 -27 -17 -62 -33 -80 -36 l-31 -5 33 29
c18 16 107 82 198 148 144 103 163 120 146 127 -32 14 -61 2 -139 -57 -39 -30
-74 -52 -77 -49 -3 3 -21 -9 -41 -26 -20 -17 -40 -29 -46 -26 -5 4 -9 2 -9 -4
0 -6 -12 -8 -29 -5 -23 5 -32 2 -41 -16 -11 -20 -10 -21 9 -15 41 13 21 -20
-61 -100 -82 -79 -207 -170 -244 -177 -17 -3 -19 5 -19 112 -1 63 -5 122 -9
132 -9 20 20 81 35 72 14 -8 36 13 54 50 10 19 42 48 85 76 39 25 94 64 122
88 53 43 69 48 74 21 11 -52 10 -53 -66 -93 -80 -42 -84 -60 -7 -27 53 23 56
21 26 -17 -11 -15 -16 -28 -10 -30 15 -5 47 14 136 81 132 100 198 125 270
105 70 -20 111 -12 209 37 80 41 99 47 131 41 31 -6 35 -10 24 -22 -6 -8 -19
-12 -28 -9 -10 3 -22 -5 -32 -23 -18 -31 -180 -145 -213 -149 -25 -3 -106 -88
-106 -110 0 -13 2 -14 18 -2 9 8 21 20 25 26 14 23 90 70 232 143 77 41 159
86 183 102 42 29 53 52 30 61 -7 2 -11 7 -8 9 13 13 251 169 283 185 20 10 35
25 34 34 -1 17 -12 17 -89 4 -57 -9 -35 30 32 59 48 21 57 20 66 -6z m-1180
-46 c-20 -73 -32 -89 -80 -105 -25 -9 -65 -29 -88 -45 -46 -31 -118 -60 -118
-47 0 10 282 243 297 245 0 0 -5 -22 -11 -48z m-136 -14 c0 -7 -11 -25 -24
-41 -27 -32 -176 -157 -187 -157 -4 0 -6 28 -5 62 l2 63 44 17 c40 16 161 64
168 67 1 0 2 -5 2 -11z m1003 -8 c-3 -11 -14 -25 -24 -31 -15 -8 -19 -6 -19 9
0 21 18 42 36 42 7 0 10 -8 7 -20z m-1178 0 c-3 -5 -10 -10 -16 -10 -5 0 -9 5
-9 10 0 6 7 10 16 10 8 0 12 -4 9 -10z m1315 -56 c0 -10 -27 -32 -43 -36 -25
-5 -22 16 4 29 26 14 39 16 39 7z m-1141 -137 c-81 -77 -195 -167 -202 -161
-5 5 -1 47 8 90 3 12 19 26 42 35 57 21 165 75 188 92 11 8 22 13 25 11 2 -3
-25 -33 -61 -67z m991 34 c0 -10 -92 -51 -114 -51 -22 0 -30 20 -15 36 23 22
92 43 112 32 9 -5 17 -12 17 -17z m-860 -16 c0 -26 -8 -42 -37 -70 -37 -36
-175 -110 -193 -103 -5 2 7 21 28 43 41 45 183 165 195 165 4 0 7 -16 7 -35z
m250 -95 c-13 -24 -31 -37 -64 -46 -38 -9 -32 13 11 42 39 26 66 28 53 4z
m-307 -42 c-13 -22 -152 -151 -205 -190 -60 -46 -82 -50 -68 -12 6 14 7 37 4
50 -8 31 17 60 57 69 16 4 30 6 31 5 2 0 43 20 93 45 100 50 99 50 88 33z
m1073 -273 c-11 -8 -31 -15 -45 -14 -26 1 -26 1 4 14 42 19 66 19 41 0z m68
-47 c-10 -10 -46 -39 -80 -63 -33 -24 -69 -56 -78 -70 -14 -21 -20 -24 -31
-15 -8 6 -35 20 -62 30 l-48 18 96 46 c108 52 200 86 212 79 5 -3 0 -14 -9
-25z m110 -17 c15 -16 15 -19 1 -31 -11 -9 -15 -9 -15 0 0 6 -18 -3 -39 -22
-36 -31 -129 -74 -139 -64 -6 7 68 81 112 110 46 31 57 32 80 7z m66 -69 c0
-10 -35 -43 -120 -112 -30 -25 -66 -57 -80 -73 l-25 -27 -46 50 -46 51 41 24
c44 26 215 86 269 94 4 0 7 -3 7 -7z m73 -101 c-23 -19 -213 -85 -221 -77 -2
3 27 25 64 50 38 25 82 56 98 71 l30 26 25 -26 26 -26 -22 -18z m-649 10 c120
-29 207 -94 266 -196 47 -82 47 -157 -1 -262 -70 -153 -327 -255 -504 -199
-27 9 -64 16 -82 16 -47 0 -171 49 -192 76 -23 29 -48 133 -57 233 -8 97 -8
287 1 300 3 6 28 11 55 11 55 0 80 7 80 24 0 15 368 13 434 -3z m-764 -23 c0
-6 -15 -24 -32 -41 -41 -36 -194 -137 -209 -137 -7 0 -8 12 -4 33 7 35 55 87
83 88 51 2 76 11 110 38 40 33 52 37 52 19z m58 -50 c-9 -13 -51 -41 -94 -62
-44 -21 -97 -52 -119 -69 l-40 -31 26 34 c14 19 59 54 99 77 40 22 84 52 99
65 31 29 50 19 29 -14z m1286 -24 c-22 -19 -73 -62 -115 -94 l-76 -59 -12 41
c-16 52 -4 65 94 102 39 15 79 31 90 36 11 5 28 9 39 9 14 1 9 -7 -20 -35z
m146 -15 c0 -5 -11 -9 -25 -9 -14 0 -48 -12 -76 -26 -28 -14 -53 -24 -55 -21
-2 2 24 26 59 54 61 51 62 51 80 31 9 -11 17 -24 17 -29z m-1426 -86 c-1 -15
-3 -42 -3 -58 -1 -26 -10 -37 -66 -73 -72 -48 -142 -75 -176 -70 -19 2 -9 12
53 55 42 29 96 76 119 105 62 75 63 76 69 73 3 -2 5 -16 4 -32z m1341 -9 c-22
-20 -56 -44 -75 -54 -45 -24 -96 -73 -115 -111 -17 -31 -22 -34 -44 -20 -12 8
-13 16 -3 48 27 90 141 169 247 171 l30 1 -40 -35z m87 -13 c1 -40 -28 -74
-58 -67 -16 4 -37 -6 -76 -35 -75 -59 -78 -63 -33 -44 64 28 125 45 125 35 0
-8 -23 -29 -91 -80 -18 -14 -65 -51 -103 -84 -100 -83 -176 -140 -211 -159
-25 -14 -27 -16 -9 -17 18 0 44 12 166 77 38 20 88 33 88 23 0 -4 -6 -10 -12
-13 -7 -3 -65 -49 -128 -101 -63 -53 -121 -96 -129 -96 -11 0 -11 3 -1 15 7 8
10 15 7 15 -20 0 -42 -18 -69 -58 -19 -27 -33 -41 -36 -33 -2 7 2 17 9 22 8 5
9 9 3 9 -15 0 -82 -50 -118 -89 -30 -31 -22 -40 16 -20 16 9 19 8 16 -3 -2 -7
-26 -24 -53 -37 -44 -23 -62 -25 -190 -27 l-142 -1 40 66 c47 79 69 104 122
141 43 29 135 60 181 60 26 0 26 -1 10 -19 -15 -17 -15 -19 -1 -25 9 -3 18 1
22 10 3 8 12 13 19 10 18 -7 152 88 185 130 13 17 58 68 99 113 41 46 82 94
91 107 15 23 251 214 257 209 2 -2 4 -17 4 -34z m-1542 15 c0 -13 -33 -48
-136 -146 -25 -24 -38 -26 -30 -5 3 8 -1 21 -10 29 -15 16 -16 74 -1 83 5 3
13 0 18 -8 6 -10 22 -6 76 23 77 42 83 44 83 24z m1522 -207 c-6 -16 -32 -36
-72 -57 -35 -17 -69 -40 -76 -49 -8 -11 -13 -13 -14 -5 0 7 -8 4 -20 -8 -21
-21 -40 -26 -40 -11 0 21 47 65 89 83 60 26 111 65 111 86 0 15 2 15 15 1 12
-12 13 -22 7 -40z m-1573 -46 c-82 -85 -101 -103 -110 -103 -5 0 -9 24 -9 54
l0 54 43 11 c23 6 60 19 82 30 22 10 42 16 44 14 3 -2 -20 -29 -50 -60z m159
38 c2 -13 -5 -29 -20 -41 -45 -39 -157 -102 -175 -98 -13 2 -1 14 40 38 75 45
108 71 110 90 7 43 39 51 45 11z m70 -126 c7 -14 12 -28 12 -30 0 -14 -276
-162 -286 -152 -10 10 70 83 157 142 52 34 97 64 100 64 3 1 11 -10 17 -24z
m1321 -52 c-14 -52 -88 -139 -143 -168 -20 -11 -36 -23 -36 -27 0 -5 -4 -8 -9
-8 -5 0 -53 -26 -108 -58 -54 -32 -118 -66 -143 -75 -62 -23 -130 -33 -130
-18 0 31 243 231 281 231 11 0 29 15 41 35 14 21 31 35 44 35 31 0 114 45 164
89 51 45 60 37 39 -36z m-1449 42 c0 -2 -21 -16 -47 -31 -27 -15 -72 -42 -102
-61 -42 -28 -55 -32 -62 -21 -12 19 30 50 115 87 68 29 96 37 96 26z m225
-117 c46 -2 51 -12 18 -33 -26 -17 -110 -94 -180 -163 -18 -18 -33 -42 -33
-51 0 -16 7 -18 52 -14 69 6 177 44 235 83 25 17 48 29 50 26 9 -9 -36 -73
-63 -91 -32 -21 -99 -45 -144 -52 -89 -13 -272 -6 -301 13 -5 3 20 20 55 38
66 34 203 123 211 137 3 4 -58 -22 -134 -57 -77 -35 -144 -64 -151 -64 -19 0
2 27 48 59 33 24 42 37 42 60 0 41 17 81 34 81 11 0 14 -9 10 -37 l-5 -38 16
27 c29 51 148 106 187 86 10 -5 34 -9 53 -10z m204 -30 c28 -6 51 -14 51 -17
0 -9 -109 -75 -180 -108 -60 -28 -168 -59 -177 -50 -3 4 87 86 143 129 16 13
38 31 48 40 23 21 46 22 115 6z m134 -69 c4 -15 -8 -35 -46 -74 -29 -29 -61
-68 -72 -87 -27 -44 -63 -60 -114 -52 -23 4 -41 9 -41 13 0 3 20 14 44 24 50
21 121 88 121 115 0 11 13 21 35 28 26 9 35 18 37 35 0 13 1 28 2 33 2 14 28
-13 34 -35z m-709 -46 l-69 -63 -5 43 c-5 40 -3 43 30 61 40 22 90 35 104 28
6 -3 -21 -34 -60 -69z"/>
<path d="M4641 6505 c-24 -12 -45 -29 -47 -38 -2 -15 1 -15 24 -3 15 7 32 11
38 9 14 -5 37 22 32 39 -2 11 -13 9 -47 -7z"/>
<path d="M4720 6512 c0 -12 3 -12 15 -2 8 7 15 13 15 15 0 1 -7 2 -15 2 -8 0
-15 -7 -15 -15z"/>
<path d="M4398 6494 c-21 -13 -38 -28 -38 -32 0 -10 21 -32 30 -32 14 0 50 38
59 63 13 34 -1 35 -51 1z"/>
<path d="M4536 6511 c-11 -4 -15 -10 -9 -14 5 -3 19 0 29 8 20 15 11 18 -20 6z"/>
<path d="M4670 6436 c-7 -10 -34 -29 -58 -44 -51 -29 -42 -42 12 -17 40 19 70
49 64 66 -2 7 -8 6 -18 -5z"/>
<path d="M4390 6373 c-36 -17 -49 -28 -38 -30 19 -5 68 18 87 41 17 21 16 20
-49 -11z"/>
<path d="M4703 6365 l-28 -25 32 17 c18 10 33 21 33 26 0 12 -7 8 -37 -18z"/>
<path d="M4515 6320 c-3 -6 1 -7 9 -4 18 7 21 14 7 14 -6 0 -13 -4 -16 -10z"/>
<path d="M4580 6291 c-8 -6 -17 -8 -21 -6 -3 3 -14 -4 -24 -15 -10 -11 -15
-20 -10 -20 9 0 75 40 75 46 0 6 -3 5 -20 -5z"/>
<path d="M4433 6263 c-2 -10 -24 -30 -49 -45 -48 -30 -63 -53 -45 -71 8 -8 17
-5 34 11 13 12 30 22 38 22 18 0 59 28 59 40 0 5 -7 7 -15 4 -12 -5 -14 0 -9
25 7 32 -4 44 -13 14z"/>
<path d="M5644 5768 c-34 -55 -31 -53 -48 -38 -13 10 -15 7 -14 -24 1 -20 3
-36 4 -36 16 0 87 42 117 70 l38 34 -23 18 c-34 26 -45 22 -74 -24z"/>
<path d="M5525 5720 c-3 -5 1 -10 9 -10 9 0 16 5 16 10 0 6 -4 10 -9 10 -6 0
-13 -4 -16 -10z"/>
<path d="M5492 5643 c-28 -21 -52 -44 -52 -51 0 -15 24 -4 57 27 12 12 29 21
38 21 8 0 15 9 15 20 0 11 -1 20 -3 20 -2 0 -26 -17 -55 -37z"/>
<path d="M5532 5598 c-20 -20 -14 -28 21 -29 31 -1 29 -2 -25 -27 -31 -15 -61
-37 -67 -49 -8 -17 -7 -23 0 -23 22 0 124 61 141 85 16 21 16 25 2 39 -18 19
-55 21 -72 4z"/>
<path d="M5361 5561 c-7 -12 -17 -18 -26 -15 -11 5 -15 -1 -15 -18 0 -23 -16
-48 -31 -48 -4 0 -4 14 1 30 9 30 5 36 -17 22 -11 -7 -36 -93 -29 -99 2 -2 41
11 87 28 96 37 159 75 159 96 0 8 -3 13 -7 11 -5 -2 -34 -16 -66 -32 -63 -32
-78 -30 -53 10 10 14 15 28 13 31 -3 2 -10 -5 -16 -16z"/>
<path d="M5135 5420 c-69 -58 -80 -75 -38 -60 40 16 100 59 108 78 14 36 -15
29 -70 -18z"/>
<path d="M5366 5426 c-20 -18 -36 -38 -36 -45 0 -14 2 -14 32 2 34 17 58 43
58 61 0 24 -15 19 -54 -18z"/>
<path d="M4515 5412 c-36 -22 -180 -168 -180 -182 0 -19 16 -11 73 37 139 117
203 204 107 145z"/>
<path d="M4534 5323 c-17 -17 -17 -18 0 -21 20 -4 48 16 40 29 -8 14 -21 11
-40 -8z"/>
<path d="M5287 4323 c-4 -3 -7 -11 -7 -17 0 -6 5 -5 12 2 6 6 9 14 7 17 -3 3
-9 2 -12 -2z"/>
<path d="M6910 6038 c-74 -15 -151 -31 -170 -34 -55 -9 -148 -43 -185 -67 -47
-30 -59 -64 -51 -145 6 -70 13 -116 22 -144 2 -9 5 -47 5 -85 1 -106 7 -108
135 -47 178 83 272 110 401 113 96 3 151 -10 192 -45 39 -32 52 -76 56 -182
l4 -87 -182 0 c-162 0 -190 -3 -255 -23 -121 -38 -175 -73 -342 -221 -107 -95
-100 -88 -132 -137 -57 -89 -85 -250 -55 -322 8 -20 20 -64 27 -97 23 -115
108 -311 152 -352 39 -36 112 -63 244 -89 245 -48 380 -50 494 -9 85 31 167
71 236 114 45 29 48 30 78 14 17 -9 61 -42 99 -73 43 -36 85 -63 115 -71 49
-15 159 -16 360 -4 130 8 118 -7 127 155 8 137 8 142 6 161 -2 24 -57 46 -131
52 -136 12 -170 34 -196 127 -8 30 -31 105 -51 165 -19 61 -37 119 -40 130 -9
41 -4 124 12 206 10 46 17 115 17 152 -3 184 -93 483 -194 640 -21 33 -46 56
-79 72 -58 30 -181 72 -252 86 -28 6 -72 15 -97 20 -25 5 -61 12 -80 15 -19 3
-62 13 -95 23 -60 17 -60 17 -195 -11z m146 -78 c8 0 14 -4 14 -10 0 -11 -211
-115 -253 -124 l-29 -7 19 25 c21 30 201 128 221 121 8 -3 20 -5 28 -5z m114
-41 c9 -6 11 -12 5 -15 -6 -2 -33 -19 -60 -37 -28 -17 -63 -40 -79 -51 l-29
-19 24 39 c53 88 96 113 139 83z m-394 -32 c-20 -18 -68 -50 -106 -71 -69 -37
-69 -37 -80 -15 -9 15 -9 24 -1 32 7 7 7 14 1 23 -8 9 7 16 57 29 38 9 79 21
93 25 14 5 36 9 49 9 23 1 23 -1 -13 -32z m514 18 c0 -22 -37 -55 -61 -55 -20
0 -20 2 -7 23 8 12 26 28 39 34 30 16 29 16 29 -2z m206 -49 c120 -60 121 -61
105 -80 -10 -12 -17 -13 -26 -6 -10 8 -43 -3 -126 -40 -62 -27 -117 -49 -121
-48 -8 3 55 96 89 131 15 16 15 17 -3 18 -42 3 -72 -4 -142 -31 -41 -16 -71
-23 -69 -17 6 19 160 117 183 117 11 0 61 -20 110 -44z m-546 -46 c-26 -33
-30 -43 -20 -55 7 -8 19 -15 26 -15 17 0 147 64 186 91 51 37 42 18 -26 -50
l-68 -68 -66 -5 c-45 -3 -91 -16 -139 -37 -40 -17 -105 -45 -144 -62 -39 -17
-73 -29 -75 -26 -3 2 -5 35 -6 72 l-2 68 90 23 c49 13 94 22 100 20 7 -3 45
15 85 39 41 24 78 44 82 44 5 1 -6 -17 -23 -39z m318 -82 c-7 -19 -47 -36 -69
-31 -26 7 -19 26 12 34 39 11 61 10 57 -3z m386 -20 c9 -17 16 -33 16 -34 0
-7 -65 -37 -127 -59 -69 -25 -71 -18 -11 34 27 23 43 31 58 26 16 -5 20 -2 21
17 1 13 1 29 0 36 -4 25 28 11 43 -20z m-94 -2 c0 -4 -38 -27 -153 -95 -38
-22 -41 -23 -53 -6 -8 10 -11 22 -8 27 17 27 214 95 214 74z m48 -143 c-3 -26
-1 -28 32 -25 19 1 39 7 44 12 30 30 47 4 71 -113 37 -181 42 -350 12 -406
-14 -24 -22 -30 -30 -22 -6 6 -23 11 -39 11 -36 0 -29 17 21 52 38 27 58 63
40 74 -16 9 -62 18 -100 17 -21 0 -84 -21 -150 -51 -135 -60 -155 -66 -164
-52 -13 21 -163 -10 -202 -42 -10 -8 -12 -8 -8 3 10 24 121 93 192 120 23 8
26 8 16 -2 -7 -7 -13 -17 -13 -21 0 -20 30 -4 84 46 33 29 73 58 90 63 45 14
146 16 146 4 0 -15 48 8 55 27 12 31 -11 36 -117 25 -57 -7 -104 -10 -106 -9
-1 2 41 35 95 73 96 69 114 92 94 123 -9 13 -15 13 -43 2 -54 -22 -68 -25 -68
-14 0 6 7 18 16 26 14 15 14 17 -1 22 -10 4 -36 -7 -68 -29 -56 -39 -62 -38
-84 14 -15 35 -7 43 57 58 30 6 69 18 85 26 43 19 47 18 43 -12z m1 -164 c-63
-57 -182 -107 -206 -87 -22 18 2 35 113 78 122 47 137 49 93 9z m-599 -134 c0
-10 -236 -115 -257 -115 -4 0 14 13 38 29 84 53 219 106 219 86z m315 -13 c26
-8 22 -9 -38 -16 -69 -7 -149 -33 -244 -80 -29 -14 -57 -26 -63 -26 -16 0 39
77 68 96 57 37 192 50 277 26z m-125 -86 c0 -2 -37 -40 -82 -85 -78 -77 -81
-82 -62 -96 18 -14 18 -16 -16 -45 -95 -82 -127 -122 -174 -215 -46 -90 -70
-122 -121 -159 -18 -14 -18 -15 -2 -16 30 0 8 -24 -80 -89 -46 -34 -89 -74
-99 -92 -16 -31 -17 -32 -30 -14 -30 41 -16 66 72 126 68 45 90 69 64 69 -5 0
-38 -17 -72 -38 -144 -88 -126 -61 35 51 130 90 197 146 197 166 0 19 -27 12
-61 -16 -19 -16 -42 -26 -55 -25 -12 2 -36 -4 -53 -13 l-31 -15 11 23 c6 14
26 31 45 40 23 11 32 21 28 32 -3 8 -10 12 -15 9 -5 -3 -9 -1 -9 4 0 5 10 14
23 19 19 9 25 8 33 -5 9 -13 24 -5 102 54 50 38 92 73 92 77 0 16 -31 19 -63
6 -17 -7 -50 -30 -72 -50 -36 -34 -42 -36 -60 -23 -22 16 -24 14 75 83 30 21
64 49 75 61 32 35 130 99 219 141 87 41 86 41 86 35z m-284 -48 c-3 -13 -5
-31 -5 -42 -1 -15 -4 -16 -15 -7 -12 10 -22 4 -53 -30 -57 -63 -101 -103 -175
-159 -70 -52 -86 -57 -119 -40 -25 14 -26 44 -1 36 19 -6 50 20 71 61 15 30
14 33 -9 33 -11 0 -20 4 -20 9 0 25 262 157 317 160 8 1 11 -8 9 -21z m710
-70 c-20 -23 -36 -46 -36 -52 0 -6 -7 -3 -14 7 -12 16 -18 17 -38 7 -13 -7
-33 -21 -45 -32 -31 -29 -48 -13 -23 22 23 33 88 68 144 80 23 4 42 8 44 9 2
1 -13 -18 -32 -41z m-275 -77 c24 -19 24 -22 26 -215 l2 -196 -45 -38 c-54
-48 -139 -75 -241 -76 -80 0 -116 17 -141 67 -18 36 -18 114 0 163 45 126 201
278 311 304 51 12 63 11 88 -9z m324 -33 c-4 -13 -46 -61 -93 -108 -83 -81
-86 -84 -93 -60 -11 40 -10 93 4 120 9 18 31 31 77 47 36 12 75 22 88 23 20 0
22 -4 17 -22z m71 -101 c-6 -26 -42 -47 -109 -65 -43 -12 -43 -13 15 55 15 19
25 40 22 48 -4 10 4 20 27 29 34 14 34 14 43 -14 5 -16 6 -40 2 -53z m-1206
-78 c-11 -19 -9 -24 9 -39 21 -15 21 -17 4 -32 -27 -23 -62 -40 -73 -33 -18
11 8 83 41 114 27 25 35 21 19 -10z m1130 -37 c0 -4 -25 -16 -55 -26 -30 -9
-68 -28 -85 -42 -20 -17 -30 -21 -31 -12 -1 7 -2 20 -3 28 -3 30 13 47 45 48
17 0 33 2 35 4 8 9 94 8 94 0z m110 -21 c-8 -16 -20 -21 -53 -21 -38 0 -40 1
-22 14 21 14 78 35 83 30 2 -1 -1 -12 -8 -23z m-36 -95 c-21 -19 -52 -46 -69
-60 -45 -41 -105 -73 -149 -81 l-39 -6 6 46 c2 26 12 54 20 62 14 14 207 69
251 72 15 1 10 -7 -20 -33z m-1154 -5 c-14 -27 -92 -92 -104 -88 -29 10 -13
35 34 57 28 13 56 30 62 37 15 19 20 16 8 -6z m1206 -6 c-4 -12 0 -14 18 -9
19 4 22 2 21 -18 -3 -34 31 -88 80 -128 24 -19 43 -39 41 -45 -2 -9 -191 -95
-210 -95 -5 0 5 12 23 28 27 22 31 32 26 54 -6 25 -10 26 -52 22 -25 -2 -50
-7 -54 -10 -5 -3 -9 -1 -9 4 0 5 32 24 71 41 59 26 69 35 65 51 -3 11 -8 29
-11 39 -7 22 -21 21 -78 -2 -34 -15 -36 -15 -26 1 10 15 89 81 98 82 2 0 1 -7
-3 -15z m-981 -95 c9 -17 13 -40 9 -54 -4 -19 -1 -25 19 -30 35 -8 38 -26 14
-74 -42 -79 -124 -152 -171 -152 -43 0 -86 27 -86 53 0 31 27 58 94 97 50 28
76 54 76 76 0 3 -6 2 -12 -4 -7 -5 -30 -17 -50 -25 -36 -15 -38 -15 -38 4 0
11 19 36 42 57 23 20 51 47 62 59 12 13 22 23 23 23 1 0 9 -13 18 -30z m599
-46 c10 -4 16 -18 16 -40 0 -28 4 -34 21 -34 28 0 110 19 132 31 11 6 21 8 23
6 11 -11 -11 -39 -42 -53 -19 -9 -44 -31 -56 -48 -57 -84 -124 -131 -232 -163
-53 -16 -174 -24 -181 -13 -3 4 23 25 58 46 50 31 158 109 233 170 17 14 18
26 2 42 -8 8 -20 4 -47 -17 -58 -46 -151 -103 -162 -99 -16 5 124 146 162 162
38 17 50 19 73 10z m-395 -90 c18 -4 31 -13 31 -21 0 -12 10 -14 51 -9 l52 6
-18 -27 c-19 -32 -95 -103 -108 -103 -5 0 -7 -9 -4 -19 3 -12 -3 -27 -14 -37
-18 -16 -19 -16 -19 0 0 14 -4 15 -20 6 -29 -16 -74 -9 -78 12 -2 9 10 30 27
47 28 29 28 30 8 33 -12 2 -37 1 -54 -3 -18 -4 -33 -5 -33 -3 0 14 41 81 58
95 34 29 63 34 121 23z m1062 -19 l29 -16 -34 -29 c-40 -36 -50 -38 -40 -7 4
12 7 32 6 45 -2 26 0 27 39 7z m-407 -50 c-19 -35 -48 -46 -57 -22 -7 19 3 33
38 51 38 20 42 14 19 -29z m513 -33 c-7 -77 -19 -117 -39 -123 -7 -2 -51 -2
-97 1 l-84 5 76 69 c73 65 136 116 145 116 2 0 2 -31 -1 -68z m-197 33 c0 -8
-32 -48 -70 -88 l-71 -72 5 43 c7 52 30 93 65 115 33 21 71 22 71 2z m-210
-95 c-21 -29 -44 -31 -54 -5 -3 8 6 18 22 24 48 17 55 13 32 -19z"/>
<path d="M15380 6032 c-111 -15 -257 -77 -329 -138 -38 -33 -41 -34 -41 -14 0
62 -36 83 -163 94 -31 2 -86 14 -120 25 -80 27 -135 32 -169 15 -90 -46 -131
-206 -132 -514 0 -106 3 -144 17 -178 15 -38 17 -66 12 -210 -3 -92 -7 -180
-10 -197 -2 -16 -7 -61 -10 -100 -4 -38 -10 -90 -15 -113 -14 -79 4 -756 26
-982 4 -36 8 -182 9 -325 1 -143 5 -274 9 -292 11 -48 56 -65 172 -64 52 1
105 3 117 6 37 8 174 24 246 29 63 5 62 2 64 196 0 89 -11 313 -18 349 -2 12
-7 79 -10 149 -4 70 -8 142 -9 161 l-3 33 44 -6 c24 -3 78 -18 121 -32 66 -23
93 -27 189 -26 62 0 132 3 155 6 24 3 66 8 93 12 28 3 88 15 134 25 294 68
505 201 618 390 29 48 33 65 38 149 3 52 7 113 10 135 30 273 29 282 -35 534
-32 124 -65 244 -73 266 -36 100 -140 247 -261 370 -91 93 -135 121 -300 189
-105 44 -284 71 -376 58z m188 -100 c39 -3 16 -19 -60 -42 -58 -18 -79 -20
-112 -12 -49 13 -77 9 -181 -22 -84 -25 -104 -24 -83 2 47 56 232 88 436 74z
m-933 -31 c22 -6 63 -12 92 -15 76 -7 84 -16 29 -38 -58 -22 -153 -82 -177
-111 -35 -42 -19 -76 31 -69 21 3 30 10 30 22 0 32 47 76 112 105 35 15 73 36
85 47 21 20 21 20 27 0 4 -11 15 -27 26 -37 11 -10 20 -22 20 -26 0 -4 -26
-15 -57 -24 -99 -27 -193 -66 -193 -80 0 -7 8 -11 18 -9 9 2 34 5 55 8 20 2
50 12 65 22 28 19 142 28 142 11 0 -4 -21 -17 -47 -29 -27 -11 -71 -31 -99
-43 -114 -53 -238 -105 -241 -101 -7 7 -5 365 2 376 4 6 14 9 23 6 10 -3 35
-9 57 -15z m1179 -42 c21 -6 59 -30 85 -53 25 -24 80 -71 121 -105 93 -77 119
-109 99 -122 -8 -5 -25 -9 -39 -9 -14 0 -68 -9 -120 -19 -85 -17 -146 -25
-175 -22 -17 2 28 27 90 50 76 30 120 73 104 102 -9 18 -16 20 -62 14 -29 -4
-97 -23 -152 -41 -55 -19 -127 -37 -160 -40 -64 -5 -62 -2 23 33 148 61 196
87 200 111 3 18 -2 19 -45 16 -170 -14 -301 -43 -385 -86 -21 -10 -38 -15 -38
-11 0 5 46 32 103 61 56 29 136 71 177 92 79 42 110 47 174 29z m-310 -40 c-3
-6 -84 -49 -180 -96 -95 -46 -174 -87 -176 -91 -13 -30 -66 -56 -140 -72 -172
-36 -282 -64 -264 -68 10 -2 38 1 63 7 32 9 49 9 58 1 8 -6 14 -7 17 -1 1 5
40 12 86 16 46 4 91 8 100 10 91 14 -76 -87 -298 -181 -104 -44 -185 -90 -188
-107 -4 -21 37 -23 76 -3 30 15 173 41 192 34 16 -5 -159 -74 -228 -90 -64
-14 -67 -11 -72 70 -6 130 -8 125 45 205 30 46 62 82 80 91 93 45 697 269 734
273 25 2 47 6 50 8 10 10 52 5 45 -6z m90 -133 c-9 -22 -85 -54 -142 -59 -75
-7 -81 6 -15 35 80 35 83 36 125 37 28 1 36 -2 32 -13z m222 -64 c-3 -4 -30
-21 -60 -36 -40 -20 -63 -26 -82 -22 -34 9 -24 18 46 44 56 21 105 28 96 14z
m-491 -11 c7 -12 -28 -32 -61 -36 -30 -3 -31 9 -2 29 25 18 54 21 63 7z m260
-135 c72 -34 144 -97 173 -150 13 -26 53 -220 68 -336 2 -19 10 -69 18 -110
33 -189 -10 -284 -174 -390 -100 -63 -140 -78 -211 -75 -135 5 -237 110 -289
296 -29 106 -34 149 -35 279 0 114 0 116 34 168 28 45 32 57 23 75 -11 23 -15
46 -13 83 2 32 168 194 195 190 11 -2 32 1 46 5 38 12 88 1 165 -35z m371 -1
c-46 -41 -113 -76 -132 -68 -24 9 -30 54 -8 67 30 18 96 34 139 35 l40 0 -39
-34z m229 -29 l14 -34 -27 7 c-15 4 -40 4 -57 0 -139 -37 -181 -41 -173 -17 5
13 77 52 156 84 63 25 59 27 87 -40z m-1061 0 c-3 -7 -17 -19 -32 -26 -35 -16
-112 -40 -112 -35 0 3 24 20 52 40 54 36 102 47 92 21z m913 -129 c10 -11 -69
-40 -111 -41 -49 -1 -59 20 -17 37 31 13 116 16 128 4z m-997 -32 c0 -27 -28
-71 -55 -89 -29 -19 -138 -56 -166 -56 -32 0 -32 -20 0 -21 17 -1 37 -2 44 -3
6 -2 41 8 76 21 114 42 78 15 -95 -68 -163 -79 -244 -134 -244 -167 0 -11 18
-13 93 -10 80 4 102 9 167 40 67 31 119 40 104 17 -3 -5 -55 -42 -117 -83
-114 -76 -251 -150 -298 -161 -25 -6 -26 -5 -22 35 2 23 13 75 23 116 21 80
31 144 33 208 2 36 6 41 52 66 28 14 86 41 130 59 44 18 94 39 110 46 52 24
150 63 158 64 4 1 7 -6 7 -14z m1205 -15 c8 -16 15 -39 15 -50 0 -17 -4 -20
-22 -14 -46 14 -100 6 -197 -31 -105 -40 -150 -42 -117 -6 17 19 77 42 146 56
39 9 138 53 146 66 8 14 12 11 29 -21z m45 -174 l0 -73 -77 -7 c-43 -3 -89 -9
-103 -12 -43 -9 -170 -13 -170 -5 0 22 156 106 272 146 40 13 74 25 76 25 1 0
2 -33 2 -74z m-1300 -41 c0 -13 -9 -33 -20 -43 -24 -22 -108 -48 -194 -61
l-59 -8 24 19 c34 27 94 59 169 90 80 34 80 34 80 3z m1165 -121 c-52 -47
-174 -114 -206 -114 -16 0 -19 8 -19 55 0 48 3 55 23 60 103 25 197 43 222 44
l30 0 -50 -45z m169 -58 c1 -32 -2 -60 -6 -63 -5 -2 -8 3 -8 11 0 12 -9 14
-42 11 -86 -9 -182 -40 -173 -55 3 -5 35 -7 71 -6 36 2 61 0 57 -4 -4 -4 -51
-27 -103 -50 -52 -23 -114 -51 -137 -61 -23 -10 -44 -19 -47 -19 -4 0 -6 18
-6 40 0 46 13 56 88 66 67 9 61 32 -11 36 l-52 3 175 77 c96 42 179 75 184 74
6 -1 10 -28 10 -60z m-1342 -45 c2 -18 -6 -30 -28 -46 -35 -24 -241 -78 -277
-73 -20 3 -18 6 18 29 22 14 83 42 136 62 52 21 104 44 115 51 22 17 32 10 36
-23z m1348 -111 c0 -33 -43 -68 -106 -85 -33 -9 -102 -29 -154 -45 -52 -15
-108 -31 -125 -34 -36 -7 -1 11 180 94 66 30 136 63 155 72 45 22 50 22 50 -2z
m-1460 -35 c-79 -41 -311 -135 -335 -135 -14 0 -16 7 -12 41 3 23 10 45 17 49
11 7 52 16 155 36 11 2 31 6 45 9 47 10 75 15 120 21 25 3 47 8 49 10 2 2 9 4
15 4 6 -1 -18 -16 -54 -35z m226 -119 c25 -50 44 -99 42 -110 -4 -28 -78 -67
-200 -108 -54 -18 -98 -38 -98 -44 0 -13 60 0 125 26 37 15 85 21 85 12 0 -4
-84 -52 -187 -107 -104 -55 -198 -110 -210 -123 -11 -13 -34 -25 -50 -28 -15
-2 -34 -7 -40 -9 -10 -3 -13 15 -13 73 l0 77 77 13 c113 18 120 36 11 27 -80
-6 -89 -5 -95 12 -9 21 -9 147 -1 183 4 14 7 28 7 32 1 6 225 118 236 118 2 0
45 20 97 43 51 24 100 46 108 49 22 8 54 -33 106 -136z m1084 5 c-282 -146
-310 -159 -310 -143 1 50 12 62 79 82 36 11 104 35 151 55 107 44 161 48 80 6z
m133 -79 c-6 -58 -39 -132 -61 -133 -10 -1 -30 -2 -47 -3 -16 -1 -73 -14 -125
-29 -52 -14 -214 -58 -360 -97 -145 -39 -266 -73 -269 -76 -2 -2 -1 -7 3 -11
10 -10 101 7 267 51 53 13 116 27 140 29 l43 4 -27 -23 c-15 -12 -51 -27 -84
-34 -82 -15 -123 -32 -232 -94 -126 -72 -179 -89 -272 -90 -76 0 -143 18 -136
37 4 12 21 18 127 41 79 17 145 50 135 65 -6 10 -20 8 -119 -13 -67 -15 -101
-17 -89 -5 19 18 208 109 304 146 143 56 298 108 394 133 44 12 87 27 95 34
67 59 295 150 311 124 3 -5 4 -30 2 -56z m-1070 -141 c27 -12 76 -29 110 -37
34 -8 68 -17 76 -20 7 -2 -32 -26 -87 -53 -116 -57 -227 -125 -259 -158 -25
-27 -45 -29 -63 -8 -10 12 -6 20 19 46 37 36 38 46 8 60 -17 8 -49 2 -142 -24
-220 -63 -227 -59 -54 31 85 44 194 104 244 135 49 30 92 54 95 53 3 -2 27
-13 53 -25z m977 -73 c0 -15 -92 -91 -164 -136 -98 -63 -246 -106 -401 -118
-57 -5 -77 -3 -70 4 27 30 349 174 495 223 127 42 140 45 140 27z m-1449 -218
c-39 -35 -140 -85 -189 -94 -32 -6 -33 -5 -30 26 3 28 8 33 58 50 76 26 151
47 175 47 17 1 14 -4 -14 -29z m109 -19 c0 -8 -22 -18 -75 -36 -23 -7 -15 2
22 26 31 19 53 24 53 10z m56 -135 c3 -19 1 -43 -5 -55 -28 -51 -140 -78 -301
-72 l-35 1 33 20 c65 40 287 148 294 144 4 -3 10 -20 14 -38z m-227 -1 c-8 -8
-44 -27 -81 -44 l-68 -30 0 32 c0 30 3 33 33 35 17 1 45 6 61 10 16 4 38 9 49
10 17 1 18 -1 6 -13z m203 -147 c-22 -20 -307 -158 -328 -158 -2 0 -4 20 -4
45 0 50 24 84 63 86 50 3 145 17 182 27 35 10 97 10 87 0z m24 -70 c10 -16 23
-88 15 -89 -3 0 -26 -3 -51 -5 -38 -4 -105 -16 -215 -40 -11 -2 -42 -7 -69
-10 -70 -9 -53 9 58 62 78 37 227 93 248 94 4 0 10 -5 14 -12z m-131 -184
c-54 -39 -173 -99 -217 -110 l-28 -6 0 60 0 59 38 7 c20 4 57 10 82 13 25 3
47 7 49 9 2 2 32 4 65 4 l61 0 -50 -36z m165 26 c0 -6 -7 -24 -15 -40 -12 -23
-30 -34 -102 -58 -49 -16 -105 -36 -125 -46 -21 -9 -38 -14 -38 -12 0 20 164
129 228 152 46 16 52 17 52 4z m-152 -161 c-2 -7 -37 -31 -78 -54 -79 -45
-117 -83 -107 -109 9 -22 70 -21 135 4 74 28 83 27 70 -11 -17 -48 -48 -62
-152 -67 l-93 -4 -9 28 c-5 16 -9 36 -8 44 1 8 2 39 3 68 1 49 2 52 27 52 35
0 135 26 170 45 35 18 47 19 42 4z m140 4 c-25 -52 -38 -68 -73 -88 -54 -31
-117 -47 -146 -37 -24 9 -14 16 156 110 40 22 69 29 63 15z m-3 -149 c-3 -30
-9 -55 -13 -55 -35 -6 -74 -5 -78 3 -8 12 42 94 69 113 28 19 31 10 22 -61z"/>
<path d="M14663 5112 c-18 -2 -33 -7 -33 -12 0 -16 30 -19 62 -6 18 7 39 11
46 9 6 -3 12 0 12 6 0 6 -12 10 -27 9 -16 -2 -43 -4 -60 -6z"/>
<path d="M14900 4559 c-99 -23 -169 -44 -242 -74 -10 -4 -18 -11 -18 -17 0 -5
3 -7 8 -5 4 3 34 8 67 11 33 4 80 9 105 12 25 3 56 7 70 10 24 4 25 4 5 -12
-11 -8 -89 -50 -174 -92 -138 -68 -174 -93 -159 -108 7 -6 92 27 188 74 168
81 358 236 283 229 -10 0 -70 -13 -133 -28z"/>
<path d="M13364 6009 c-18 -20 -19 -36 -17 -248 0 -124 3 -348 6 -496 5 -265
5 -274 37 -400 39 -155 42 -239 12 -308 -26 -58 -70 -88 -116 -77 -21 5 -51 1
-91 -12 -107 -34 -182 -5 -299 115 -137 139 -176 234 -201 482 -3 33 -8 69
-10 80 -23 118 -24 356 -1 475 3 14 7 41 10 60 3 19 8 46 11 60 12 59 15 175
5 204 -16 50 -44 55 -322 54 l-247 0 -10 -27 c-26 -67 -31 -149 -27 -491 3
-195 7 -364 9 -375 3 -11 8 -58 12 -105 4 -47 8 -87 10 -90 2 -3 6 -30 10 -60
18 -150 90 -384 156 -508 78 -147 208 -280 331 -339 146 -71 124 -67 342 -67
l201 -1 78 39 c53 26 84 36 100 32 22 -7 159 -31 247 -44 54 -8 293 -7 335 1
54 11 85 29 91 52 7 27 -1 121 -21 275 -9 63 -16 153 -16 200 0 47 -7 120 -15
164 -9 43 -17 91 -19 105 -2 14 -13 78 -24 142 -12 64 -24 152 -26 195 -11
177 -14 513 -5 569 5 33 12 110 16 171 8 131 22 116 -136 144 -51 8 -83 13
-180 26 -19 2 -51 7 -70 9 -127 17 -146 16 -166 -6z m226 -102 c0 -23 -16 -36
-68 -56 -68 -27 -77 -26 -77 5 0 20 6 27 28 31 16 3 31 11 33 18 7 16 84 18
84 2z m-1150 -1 c0 -2 -41 -34 -91 -72 -56 -41 -93 -63 -97 -56 -6 8 -7 89 -3
125 1 7 191 11 191 3z m167 -108 c-5 -111 -18 -171 -41 -196 -9 -10 -203 -64
-311 -86 -19 -4 -19 -4 -1 7 84 53 278 224 317 278 l19 27 -30 37 c-17 21 -30
39 -30 41 0 2 19 4 41 4 l42 0 -6 -112z m1200 84 c-20 -25 -80 -42 -145 -42
l-66 0 27 28 c24 25 31 27 111 27 68 0 82 -2 73 -13z m-47 -83 c0 -10 -65 -54
-160 -109 -41 -23 -89 -56 -107 -72 l-31 -30 -7 68 c-7 57 -5 69 9 80 20 14
154 52 217 60 24 3 45 7 47 8 6 6 32 2 32 -5z m-1330 -80 c-53 -47 -166 -129
-180 -129 -5 0 -6 77 -1 101 1 7 60 32 126 54 108 36 117 31 55 -26z m1385 8
c-2 -18 -8 -50 -14 -72 l-10 -40 -97 3 c-53 2 -94 5 -92 6 25 21 201 136 207
136 5 0 7 -15 6 -33z m-111 -172 c-6 -16 -129 -111 -182 -141 -33 -19 -34 -19
-51 2 -21 27 -28 119 -9 126 7 2 31 5 53 7 22 1 65 6 95 9 97 13 100 13 94 -3z
m80 -70 c1 -52 -2 -65 -14 -66 -8 0 -24 -2 -35 -4 -11 -2 -49 -7 -85 -11 -61
-6 -64 -6 -50 11 8 10 47 42 87 72 39 29 75 58 78 64 12 19 18 0 19 -66z
m-1355 18 c-82 -93 -165 -161 -179 -147 -4 5 -11 30 -15 56 -6 42 -5 48 19 63
21 14 139 47 190 54 5 0 -1 -11 -15 -26z m138 -49 l-2 -76 -70 -22 c-39 -12
-99 -39 -133 -59 -92 -54 -121 -49 -59 9 17 17 61 61 96 97 58 61 143 127 163
127 4 0 7 -34 5 -76z m1181 -89 c7 -6 -167 -170 -227 -213 -45 -32 -84 -42
-76 -19 3 11 14 158 15 203 0 20 4 21 42 14 22 -4 45 -15 50 -24 14 -25 43
-19 88 19 34 29 48 34 73 29 17 -3 33 -7 35 -9z m-1238 -63 c-24 -20 -91 -77
-148 -125 l-103 -88 3 62 c3 53 6 63 23 65 23 3 228 105 233 117 2 4 11 7 20
7 11 -1 1 -14 -28 -38z m1270 16 c1 -2 3 -44 7 -94 l5 -92 -68 -6 c-38 -3 -93
-9 -123 -12 -63 -7 -66 -13 49 85 41 35 84 77 95 92 17 24 34 37 35 27z
m-1197 -45 c3 -10 6 -43 6 -73 l2 -55 -143 -51 c-79 -28 -145 -50 -147 -48
-12 11 75 100 146 149 45 31 89 65 99 76 21 24 31 24 37 2z m-30 -192 c22 -3
-4 -26 -100 -87 -60 -38 -127 -88 -149 -111 l-41 -42 -2 63 c-1 69 5 79 69
111 56 29 183 73 200 70 8 -2 18 -4 23 -4z m1175 -12 c2 -11 -17 -30 -53 -53
-78 -52 -175 -106 -190 -106 -17 0 -30 97 -15 115 15 18 64 34 154 50 85 16
100 15 104 -6z m76 -102 c-3 -46 -3 -46 -40 -53 -16 -3 -36 -7 -44 -9 -8 -2
-46 -7 -85 -11 -38 -3 -74 -8 -80 -11 -28 -13 61 55 145 112 l95 64 5 -27 c3
-15 5 -44 4 -65z m-1203 -27 c22 -61 69 -235 69 -254 0 -16 -30 -30 -169 -77
-62 -21 -119 -43 -127 -50 -7 -6 -18 -9 -24 -7 -19 6 25 52 119 127 91 71 138
129 127 157 -10 25 -96 13 -190 -25 -44 -17 -84 -30 -89 -28 -28 9 220 221
251 215 8 -2 22 -28 33 -58z m1191 -85 c-13 -24 -117 -100 -189 -138 l-69 -36
-21 69 c-11 38 -17 74 -13 80 10 16 139 37 228 38 58 0 71 -2 64 -13z m-1238
-33 c8 -13 -5 -26 -79 -75 -38 -25 -94 -69 -123 -98 -29 -29 -54 -50 -55 -48
-23 35 -36 83 -27 100 13 22 85 61 190 100 84 32 87 32 94 21z m1290 -29 c11
-37 17 -93 9 -94 -51 -4 -173 -41 -173 -52 0 -4 22 -6 49 -4 43 3 48 1 41 -13
-15 -28 -70 -65 -170 -114 -52 -26 -149 -88 -215 -137 -66 -49 -136 -100 -156
-113 -56 -37 -352 -197 -356 -193 -8 8 43 61 111 114 39 31 89 73 111 94 26
25 70 50 128 73 151 59 212 104 249 184 22 45 73 80 123 84 26 2 27 4 29 38 1
13 27 36 76 67 41 27 86 56 100 66 13 9 28 17 32 17 3 0 9 -8 12 -17z m40
-189 c11 -28 6 -72 -9 -88 -16 -16 -62 -31 -127 -40 -76 -12 -121 -25 -137
-41 -15 -15 -14 -16 14 -11 17 2 55 7 85 10 30 4 79 10 108 15 92 14 76 -4
-88 -104 -154 -93 -264 -149 -268 -136 -2 6 -19 18 -38 26 -19 8 -34 18 -34
24 0 16 160 160 250 224 92 66 208 136 226 136 7 1 15 -6 18 -15z m-1170 -15
c-10 -12 -53 -38 -94 -57 -41 -19 -78 -37 -82 -39 -4 -2 -5 3 -2 11 7 18 90
81 125 95 13 5 35 10 48 10 24 1 24 1 5 -20z m-184 -30 c-54 -47 -156 -119
-169 -119 -6 0 -11 11 -11 24 0 17 9 27 30 36 17 7 43 22 57 34 22 17 103 53
123 55 3 0 -11 -14 -30 -30z m210 -24 c-13 -14 -53 -43 -89 -66 -36 -23 -95
-61 -131 -85 -90 -59 -94 -60 -119 -26 l-20 29 72 34 c237 109 302 139 306
139 3 0 -6 -11 -19 -25z m97 -46 l12 -30 -136 -65 c-74 -35 -139 -64 -144 -64
-4 0 -14 -8 -21 -18 -18 -25 -35 -34 -42 -23 -7 11 57 76 109 110 22 14 42 29
45 32 6 7 153 89 160 89 3 0 11 -14 17 -31z m74 -87 c-15 -27 -50 -55 -148
-116 -104 -65 -140 -101 -122 -122 6 -8 18 -14 27 -14 21 0 102 49 102 62 0 7
5 6 15 -2 10 -8 19 -9 28 -3 6 6 50 30 97 54 47 23 102 53 122 66 72 44 80 24
10 -24 -26 -18 -67 -52 -92 -75 -141 -132 -184 -170 -204 -177 -40 -16 -213
79 -256 139 l-20 28 63 32 c58 31 96 50 242 130 90 49 156 60 136 22z m984
-59 c4 -21 8 -42 9 -48 2 -5 -23 -21 -53 -35 -31 -14 -72 -34 -91 -45 -75 -44
-242 -103 -214 -75 5 5 52 32 104 60 68 38 111 69 155 116 33 35 66 64 72 64
7 0 15 -17 18 -37z m-897 18 c10 -6 1 -16 -35 -38 -59 -36 -138 -73 -155 -73
-24 0 106 98 147 112 28 9 28 9 43 -1z m232 -152 c-14 -10 -46 -36 -72 -57
-54 -43 -84 -102 -68 -132 8 -15 7 -20 -2 -22 -36 -5 -306 -2 -300 3 4 4 25
12 47 19 35 11 142 65 350 177 70 37 79 40 45 12z m669 -21 c7 -23 15 -65 18
-95 6 -51 5 -53 -18 -54 -13 0 -33 -3 -44 -5 -11 -2 -77 -5 -146 -5 -101 -1
-133 3 -160 16 l-33 17 45 18 c24 9 105 47 179 83 74 36 138 66 141 66 3 1 11
-18 18 -41z m-543 18 c9 -22 -27 -74 -65 -97 -35 -21 -121 -42 -121 -30 0 10
112 117 135 129 28 16 45 15 51 -2z"/>
<path d="M9189 5976 c-2 -2 -31 -6 -64 -9 -274 -27 -494 -164 -657 -409 -45
-67 -62 -115 -74 -213 -3 -22 -8 -51 -10 -65 -3 -14 -7 -126 -9 -250 -4 -198
-2 -236 16 -315 23 -101 24 -108 34 -150 20 -81 159 -260 265 -339 135 -101
300 -168 450 -183 116 -12 337 -6 435 12 184 34 343 123 331 186 -2 13 -7 42
-11 64 -20 117 -75 264 -105 282 -16 11 -26 7 -72 -30 -85 -67 -156 -86 -313
-83 l-130 3 -95 43 c-52 24 -103 50 -112 58 -9 7 -30 48 -47 90 -53 135 -73
244 -73 406 0 281 187 454 487 450 182 -2 250 -19 311 -77 32 -30 48 -38 70
-35 l29 3 3 172 2 172 -77 55 c-164 116 -278 157 -454 162 -69 3 -127 3 -130
0z m-69 -104 c0 -15 -22 -30 -36 -25 -24 9 -16 33 11 33 14 0 25 -4 25 -8z
m189 -8 c-7 -9 -41 -29 -76 -46 -35 -16 -63 -33 -63 -38 0 -5 -76 -47 -170
-94 -93 -47 -170 -82 -170 -77 0 14 65 62 148 110 86 50 137 93 158 132 14 28
16 29 100 29 78 0 85 -2 73 -16z m215 -7 c54 -22 57 -25 41 -40 -20 -21 -106
-61 -166 -78 -24 -7 -48 -16 -54 -19 -8 -6 -106 -39 -191 -65 -7 -2 -10 4 -7
16 4 12 11 18 20 15 19 -8 80 25 121 64 79 76 146 130 162 130 9 0 43 -11 74
-23z m-494 -18 c0 -19 -83 -83 -180 -139 -58 -33 -116 -68 -130 -78 -21 -14
-18 -8 14 36 21 29 37 55 34 57 -2 2 -32 -21 -68 -50 -35 -30 -66 -53 -68 -50
-11 11 54 86 106 123 70 48 107 68 197 103 66 25 95 25 95 -2z m660 -70 c0 -5
-2 -9 -4 -9 -2 0 -11 -3 -19 -6 -12 -4 -14 0 -10 15 5 19 33 19 33 0z m-230
-72 c0 -46 -233 -145 -527 -223 -6 -1 -9 -12 -6 -24 8 -29 -16 -51 -89 -84
-35 -16 -71 -32 -80 -37 -10 -5 -24 -9 -32 -9 -22 0 -66 -40 -66 -60 0 -10
-11 -32 -25 -48 -25 -30 -25 -30 -3 -25 13 4 43 22 68 42 87 70 205 139 217
127 11 -11 -20 -75 -48 -100 -29 -26 -32 -27 -49 -11 -18 16 -38 5 -25 -14 3
-5 -5 -13 -17 -16 -13 -4 -64 -27 -114 -51 -51 -24 -96 -44 -101 -44 -6 0 -27
-14 -48 -30 -21 -17 -41 -28 -44 -25 -3 4 -6 22 -6 41 -1 30 5 39 44 69 25 18
57 45 71 60 l25 27 -25 -7 c-14 -4 -40 -14 -59 -21 -19 -8 -36 -13 -38 -11 -8
9 29 153 45 170 9 11 40 30 68 42 28 13 55 28 59 34 4 7 39 27 78 45 40 19
133 62 207 96 74 34 141 67 148 72 6 6 12 7 12 2 -1 -14 -22 -37 -68 -73 -23
-18 -40 -37 -36 -42 7 -11 47 -12 60 0 5 4 81 32 168 61 87 29 173 58 190 66
39 17 46 17 46 1z m270 6 c3 -43 12 -121 16 -132 3 -10 -5 -12 -38 -7 -24 3
-74 8 -113 12 -113 10 -121 13 -112 38 10 26 58 50 146 72 102 26 101 26 101
17z m-1050 -174 c0 -13 -71 -31 -105 -27 l-30 3 38 21 c37 20 97 22 97 3z
m200 -342 c0 -26 -142 -176 -192 -203 -12 -7 -16 -14 -10 -18 11 -7 25 -3 87
25 64 28 95 28 90 2 -2 -10 -4 -24 -4 -30 -1 -7 -8 -13 -17 -13 -9 0 -57 -15
-108 -34 -50 -19 -111 -37 -136 -41 l-45 -6 30 16 c56 31 85 67 48 60 -10 -2
-23 -4 -29 -4 -6 -1 -39 -19 -72 -41 l-62 -40 0 29 c0 65 59 153 125 189 36
19 277 121 288 122 4 0 7 -6 7 -13z m-59 -315 c-18 -15 -93 -58 -167 -96 -73
-37 -134 -72 -134 -77 0 -5 -9 -9 -20 -9 -21 0 -40 48 -35 93 4 37 13 47 38
45 12 0 56 9 97 22 83 26 179 47 224 49 l29 1 -32 -28z m56 -64 c23 -39 113
-256 113 -272 0 -6 -9 -17 -20 -24 -12 -7 -19 -19 -18 -27 3 -16 -97 -85 -124
-85 -15 0 -16 3 -6 19 6 10 17 17 23 14 7 -2 15 2 18 11 4 11 -1 14 -24 11
-16 -2 -34 -7 -39 -10 -21 -13 -8 13 20 40 17 16 30 32 30 36 0 15 -62 -11
-121 -50 -71 -47 -100 -51 -134 -16 -45 44 -29 80 41 90 59 9 75 16 71 28 -2
7 -20 12 -40 12 -72 0 -29 34 80 63 83 22 118 42 126 71 4 17 0 21 -17 21 -47
0 -108 -26 -248 -103 -91 -51 -122 -54 -93 -10 31 46 80 81 154 110 40 15 83
37 95 48 17 16 80 53 93 55 0 0 10 -15 20 -32z m253 -363 c15 -18 16 -17 -38
-44 -48 -24 -47 -36 0 -47 l33 -7 -63 -57 c-34 -32 -62 -60 -62 -63 0 -3 10
-4 23 -2 12 2 43 6 70 10 29 4 47 11 47 19 0 8 17 15 46 19 46 5 73 26 74 59
0 15 -3 15 -30 1 -33 -16 -60 -12 -60 10 0 17 43 38 90 44 19 2 43 5 53 7 22
5 22 -2 0 -26 -14 -16 -15 -21 -4 -27 19 -12 8 -25 -54 -71 -57 -42 -83 -76
-68 -90 4 -5 28 -10 52 -12 l44 -3 13 45 c11 39 22 51 76 86 35 22 79 48 98
57 126 57 249 107 266 107 12 0 54 -100 54 -130 0 -36 -117 -116 -184 -127
-17 -3 -55 -18 -84 -35 -30 -16 -56 -27 -59 -25 -6 7 159 147 199 169 18 10
41 27 53 39 11 12 15 19 8 15 -6 -3 -16 2 -22 11 -9 17 -12 17 -48 -4 -21 -12
-44 -32 -50 -45 -7 -14 -49 -57 -93 -97 -44 -40 -80 -79 -80 -87 0 -8 -6 -14
-12 -13 -19 2 -58 -12 -58 -21 0 -8 -157 -5 -210 5 -143 26 -266 67 -320 106
l-42 31 41 20 c28 13 41 27 41 40 0 18 -4 20 -47 13 l-48 -7 35 27 c19 14 75
46 124 71 97 48 171 59 196 29z m-371 -87 c-12 -18 -23 -34 -24 -36 -4 -5 -55
21 -55 28 0 7 93 48 99 44 2 -2 -7 -18 -20 -36z m1026 -144 c-9 -18 -29 -37
-44 -43 -32 -12 -117 -23 -107 -14 24 25 162 107 165 99 2 -5 -4 -24 -14 -42z"/>
<path d="M8613 5032 c-48 -13 -77 -37 -67 -54 7 -11 44 -1 104 28 87 42 67 56
-37 26z"/>
<path d="M8775 4605 l-40 -13 53 1 c29 0 58 -5 64 -11 8 -8 17 -8 30 -1 15 8
17 13 7 25 -14 17 -61 17 -114 -1z"/>
<path d="M8953 4365 c-20 -14 -32 -45 -18 -45 17 0 75 36 72 44 -6 18 -30 18
-54 1z"/>
</g>
</svg>
